<?xml version="1.0" standalone="no"?><!DOCTYPE svg PUBLIC "-//W3C//DTD SVG 1.1//EN" "http://www.w3.org/Graphics/SVG/1.1/DTD/svg11.dtd"><svg height="652" node-id="1" sillyvg="true" template-height="652" template-width="1052" version="1.1" viewBox="0 0 1052 652" width="1052" xmlns="http://www.w3.org/2000/svg" xmlns:xlink="http://www.w3.org/1999/xlink"><defs node-id="188"><mask height="34" id="mask0" maskUnits="userSpaceOnUse" node-id="30" width="34" x="591" y="249"><path d="M 608.10 282.80 L 611.20 282.50 L 614.00 281.70 L 616.60 280.50 L 619.00 278.80 L 621.00 276.80 L 622.60 274.50 L 623.90 271.90 L 624.60 269.00 L 624.90 266.00 L 624.60 262.90 L 623.90 260.10 L 622.60 257.50 L 621.00 255.10 L 619.00 253.10 L 616.60 251.50 L 614.00 250.20 L 611.20 249.40 L 608.10 249.20 L 605.00 249.40 L 602.20 250.20 L 599.60 251.50 L 597.20 253.10 L 595.20 255.10 L 593.50 257.50 L 592.30 260.10 L 591.50 262.90 L 591.30 266.00 L 591.50 269.00 L 592.30 271.90 L 593.50 274.50 L 595.20 276.80 L 597.20 278.80 L 599.60 280.50 L 602.20 281.70 L 605.00 282.50 L 608.10 282.80 Z M 608.10 277.00 L 612.00 276.30 L 613.70 275.50 L 616.60 273.10 L 618.50 269.80 L 619.20 266.00 L 618.50 262.10 L 617.70 260.40 L 615.20 257.50 L 612.00 255.60 L 608.10 254.90 L 604.20 255.60 L 601.00 257.50 L 598.50 260.40 L 597.70 262.10 L 597.00 266.00 L 597.70 269.80 L 599.60 273.10 L 602.50 275.50 L 604.20 276.30 L 608.10 277.00 Z" fill="#ffffff" fill-rule="nonzero" node-id="191" stroke="none" target-height="33.59999" target-width="33.600037" target-x="591.3" target-y="249.2"></path></mask><mask height="34" id="mask1" maskUnits="userSpaceOnUse" node-id="34" width="34" x="591" y="249"><path d="M 608.10 282.80 L 611.20 282.50 L 614.00 281.70 L 616.60 280.50 L 619.00 278.80 L 621.00 276.80 L 622.60 274.50 L 623.90 271.90 L 624.60 269.00 L 624.90 266.00 L 624.60 262.90 L 623.90 260.10 L 622.60 257.50 L 621.00 255.10 L 619.00 253.10 L 616.60 251.50 L 614.00 250.20 L 611.20 249.40 L 608.10 249.20 L 605.00 249.40 L 602.20 250.20 L 599.60 251.50 L 597.20 253.10 L 595.20 255.10 L 593.50 257.50 L 592.30 260.10 L 591.50 262.90 L 591.30 266.00 L 591.50 269.00 L 592.30 271.90 L 593.50 274.50 L 595.20 276.80 L 597.20 278.80 L 599.60 280.50 L 602.20 281.70 L 605.00 282.50 L 608.10 282.80 Z M 608.10 277.00 L 612.00 276.30 L 613.70 275.50 L 616.60 273.10 L 618.50 269.80 L 619.20 266.00 L 618.50 262.10 L 617.70 260.40 L 615.20 257.50 L 612.00 255.60 L 608.10 254.90 L 604.20 255.60 L 601.00 257.50 L 598.50 260.40 L 597.70 262.10 L 597.00 266.00 L 597.70 269.80 L 599.60 273.10 L 602.50 275.50 L 604.20 276.30 L 608.10 277.00 Z" fill="#ffffff" fill-rule="nonzero" node-id="195" stroke="none" target-height="33.59999" target-width="33.600037" target-x="591.3" target-y="249.2"></path></mask><mask height="34" id="mask2" maskUnits="userSpaceOnUse" node-id="38" width="35" x="543" y="249"><path d="M 560.20 282.80 L 563.30 282.50 L 566.10 281.70 L 568.70 280.50 L 571.10 278.80 L 573.10 276.80 L 574.80 274.50 L 576.00 271.90 L 576.80 269.00 L 577.10 266.00 L 576.80 262.90 L 576.00 260.10 L 574.80 257.50 L 573.10 255.10 L 571.10 253.10 L 568.70 251.50 L 566.10 250.20 L 563.30 249.40 L 560.20 249.20 L 557.20 249.40 L 554.30 250.20 L 551.70 251.50 L 549.40 253.10 L 547.40 255.10 L 545.70 257.50 L 544.40 260.10 L 543.70 262.90 L 543.40 266.00 L 543.70 269.00 L 544.40 271.90 L 545.70 274.50 L 547.40 276.80 L 549.40 278.80 L 551.70 280.50 L 554.30 281.70 L 557.20 282.50 L 560.20 282.80 Z M 560.20 277.00 L 564.10 276.30 L 565.80 275.50 L 568.70 273.10 L 570.60 269.80 L 571.30 266.00 L 570.60 262.10 L 568.70 258.80 L 565.80 256.40 L 562.20 255.10 L 558.20 255.10 L 556.40 255.60 L 553.10 257.50 L 550.70 260.40 L 549.80 262.10 L 549.20 266.00 L 549.80 269.80 L 551.80 273.10 L 554.60 275.50 L 556.40 276.30 L 560.20 277.00 Z" fill="#ffffff" fill-rule="nonzero" node-id="199" stroke="none" target-height="33.59999" target-width="33.69995" target-x="543.4" target-y="249.2"></path></mask><mask height="34" id="mask3" maskUnits="userSpaceOnUse" node-id="42" width="35" x="543" y="249"><path d="M 560.20 282.80 L 563.30 282.50 L 566.10 281.70 L 568.70 280.50 L 571.10 278.80 L 573.10 276.80 L 574.80 274.50 L 576.00 271.90 L 576.80 269.00 L 577.10 266.00 L 576.80 262.90 L 576.00 260.10 L 574.80 257.50 L 573.10 255.10 L 571.10 253.10 L 568.70 251.50 L 566.10 250.20 L 563.30 249.40 L 560.20 249.20 L 557.20 249.40 L 554.30 250.20 L 551.70 251.50 L 549.40 253.10 L 547.40 255.10 L 545.70 257.50 L 544.40 260.10 L 543.70 262.90 L 543.40 266.00 L 543.70 269.00 L 544.40 271.90 L 545.70 274.50 L 547.40 276.80 L 549.40 278.80 L 551.70 280.50 L 554.30 281.70 L 557.20 282.50 L 560.20 282.80 Z M 560.20 277.00 L 564.10 276.30 L 565.80 275.50 L 568.70 273.10 L 570.60 269.80 L 571.30 266.00 L 570.60 262.10 L 568.70 258.80 L 565.80 256.40 L 562.20 255.10 L 558.20 255.10 L 556.40 255.60 L 553.10 257.50 L 550.70 260.40 L 549.80 262.10 L 549.20 266.00 L 549.80 269.80 L 551.80 273.10 L 554.60 275.50 L 556.40 276.30 L 560.20 277.00 Z" fill="#ffffff" fill-rule="nonzero" node-id="203" stroke="none" target-height="33.59999" target-width="33.69995" target-x="543.4" target-y="249.2"></path></mask><mask height="34" id="mask4" maskUnits="userSpaceOnUse" node-id="46" width="35" x="493" y="249"><path d="M 510.60 282.80 L 513.70 282.50 L 516.50 281.70 L 519.10 280.50 L 521.40 278.80 L 523.50 276.80 L 525.10 274.50 L 526.40 271.90 L 527.10 269.00 L 527.40 266.00 L 527.10 262.90 L 526.40 260.10 L 525.10 257.50 L 523.50 255.10 L 521.40 253.10 L 519.10 251.50 L 516.50 250.20 L 513.70 249.40 L 510.60 249.20 L 507.50 249.40 L 504.70 250.20 L 502.10 251.50 L 499.70 253.10 L 497.70 255.10 L 496.00 257.50 L 494.80 260.10 L 494.00 262.90 L 493.70 266.00 L 494.00 269.00 L 494.80 271.90 L 496.00 274.50 L 497.70 276.80 L 499.70 278.80 L 502.10 280.50 L 504.70 281.70 L 507.50 282.50 L 510.60 282.80 Z M 510.60 277.00 L 514.50 276.30 L 517.70 274.40 L 520.10 271.60 L 521.00 269.80 L 521.70 266.00 L 521.00 262.10 L 519.00 258.80 L 516.20 256.40 L 512.60 255.10 L 508.60 255.10 L 506.70 255.60 L 503.40 257.50 L 501.00 260.40 L 500.20 262.10 L 499.50 266.00 L 500.20 269.80 L 502.10 273.10 L 505.00 275.50 L 506.70 276.30 L 510.60 277.00 Z" fill="#ffffff" fill-rule="nonzero" node-id="207" stroke="none" target-height="33.59999" target-width="33.700012" target-x="493.7" target-y="249.2"></path></mask><mask height="34" id="mask5" maskUnits="userSpaceOnUse" node-id="50" width="35" x="493" y="249"><path d="M 510.60 282.80 L 513.70 282.50 L 516.50 281.70 L 519.10 280.50 L 521.40 278.80 L 523.50 276.80 L 525.10 274.50 L 526.40 271.90 L 527.10 269.00 L 527.40 266.00 L 527.10 262.90 L 526.40 260.10 L 525.10 257.50 L 523.50 255.10 L 521.40 253.10 L 519.10 251.50 L 516.50 250.20 L 513.70 249.40 L 510.60 249.20 L 507.50 249.40 L 504.70 250.20 L 502.10 251.50 L 499.70 253.10 L 497.70 255.10 L 496.00 257.50 L 494.80 260.10 L 494.00 262.90 L 493.70 266.00 L 494.00 269.00 L 494.80 271.90 L 496.00 274.50 L 497.70 276.80 L 499.70 278.80 L 502.10 280.50 L 504.70 281.70 L 507.50 282.50 L 510.60 282.80 Z M 510.60 277.00 L 514.50 276.30 L 517.70 274.40 L 520.10 271.60 L 521.00 269.80 L 521.70 266.00 L 521.00 262.10 L 519.00 258.80 L 516.20 256.40 L 512.60 255.10 L 508.60 255.10 L 506.70 255.60 L 503.40 257.50 L 501.00 260.40 L 500.20 262.10 L 499.50 266.00 L 500.20 269.80 L 502.10 273.10 L 505.00 275.50 L 506.70 276.30 L 510.60 277.00 Z" fill="#ffffff" fill-rule="nonzero" node-id="211" stroke="none" target-height="33.59999" target-width="33.700012" target-x="493.7" target-y="249.2"></path></mask><mask height="302" id="mask6" maskUnits="userSpaceOnUse" node-id="86" width="118" x="207" y="317"><path d="M 233.90 339.70 L 237.80 320.10 L 318.00 317.70 L 323.90 363.90 L 324.60 381.00 L 313.70 618.60 L 285.40 618.60 L 279.60 389.20 L 237.80 618.60 L 207.50 618.60 L 231.10 398.30 L 230.20 386.60 L 230.00 377.20 L 230.30 367.80 L 231.00 358.30 L 232.20 349.00 L 233.90 339.70 Z" fill="#ffffff" fill-rule="nonzero" node-id="215" stroke="none" target-height="300.89996" target-width="117.100006" target-x="207.5" target-y="317.7"></path></mask><mask height="53" id="mask7" maskUnits="userSpaceOnUse" node-id="100" width="40" x="253" y="176"><path d="M 259.80 204.60 L 260.40 202.50 L 261.10 195.60 L 261.30 183.30 L 261.00 176.60 L 270.70 179.20 L 277.60 182.40 L 282.40 186.00 L 285.00 189.30 L 285.80 191.20 L 286.20 193.20 L 285.90 199.20 L 286.30 204.10 L 287.70 207.40 L 289.90 209.20 L 291.10 209.50 L 292.60 214.30 L 292.80 217.10 L 292.40 220.00 L 291.80 221.80 L 290.70 223.50 L 289.30 225.10 L 287.50 226.40 L 285.10 227.50 L 281.90 228.30 L 278.60 228.70 L 275.40 228.50 L 272.40 227.80 L 266.80 225.50 L 260.70 221.20 L 257.80 218.40 L 253.60 213.10 L 256.40 210.40 L 258.10 208.00 L 259.80 204.60 Z" fill="#ffffff" fill-rule="nonzero" node-id="219" stroke="none" target-height="52.09999" target-width="39.19998" target-x="253.6" target-y="176.6"></path></mask><mask height="38" id="mask8" maskUnits="userSpaceOnUse" node-id="129" width="39" x="830" y="498"><path d="M 830.60 498.40 L 868.50 498.40 L 864.30 535.30 L 834.80 535.30 L 830.60 498.40 Z" fill="#ffffff" fill-rule="nonzero" node-id="223" stroke="none" target-height="36.899994" target-width="37.900024" target-x="830.6" target-y="498.4"></path></mask><mask height="111" id="mask9" maskUnits="userSpaceOnUse" node-id="156" width="157" x="779" y="299"><path d="M 899.20 311.10 L 879.40 304.10 L 858.20 303.50 L 838.50 302.30 L 799.80 301.20 L 783.70 299.70 L 779.30 326.30 L 789.20 330.60 L 795.80 332.80 L 810.20 336.50 L 819.00 338.20 L 817.20 344.50 L 816.30 349.00 L 816.20 354.10 L 817.40 358.50 L 818.60 360.70 L 822.00 364.80 L 826.40 384.10 L 815.70 409.00 L 903.00 409.00 L 894.00 381.70 L 899.30 351.50 L 917.70 363.30 L 935.40 341.10 L 908.60 316.70 L 905.70 314.40 L 902.60 312.60 L 899.20 311.10 Z" fill="#ffffff" fill-rule="nonzero" node-id="227" stroke="none" target-height="109.29999" target-width="156.10004" target-x="779.3" target-y="299.7"></path></mask><mask height="74" id="mask10" maskUnits="userSpaceOnUse" node-id="175" width="49" x="835" y="241"><path d="M 841.50 253.50 L 841.50 258.00 L 839.10 257.70 L 836.70 258.50 L 835.80 259.80 L 835.90 263.00 L 836.50 264.70 L 837.50 266.10 L 838.70 266.90 L 840.50 267.20 L 841.50 266.80 L 842.70 272.60 L 844.00 275.80 L 845.90 279.10 L 847.60 281.10 L 849.50 282.80 L 851.80 284.30 L 851.00 290.30 L 849.00 296.30 L 847.60 298.50 L 846.00 300.30 L 842.70 302.60 L 840.10 303.70 L 844.70 307.90 L 847.90 310.10 L 851.90 312.10 L 854.70 313.20 L 860.80 314.10 L 864.00 313.80 L 866.80 313.20 L 869.50 312.10 L 873.20 310.10 L 876.10 307.90 L 880.10 303.70 L 876.40 301.90 L 874.00 300.20 L 871.20 297.80 L 870.00 296.20 L 868.50 291.50 L 868.00 283.50 L 869.90 282.00 L 872.90 278.30 L 875.70 272.20 L 877.10 266.80 L 879.50 266.90 L 880.80 266.60 L 882.50 265.00 L 883.10 262.40 L 882.50 259.80 L 880.60 258.20 L 879.30 257.80 L 877.10 258.00 L 877.10 253.50 L 872.80 253.70 L 869.90 253.30 L 866.50 252.50 L 863.00 251.10 L 859.30 249.10 L 853.90 245.20 L 851.20 242.80 L 850.40 241.70 L 849.70 246.40 L 848.30 249.50 L 847.50 250.60 L 844.80 252.50 L 841.50 253.50 Z" fill="#ffffff" fill-rule="nonzero" node-id="231" stroke="none" target-height="72.40001" target-width="47.299988" target-x="835.8" target-y="241.7"></path></mask></defs><path d="M 909.00 641.50 L 209.30 641.50 L 209.30 338.00 L 209.50 334.00 L 211.00 326.50 L 212.30 322.90 L 214.60 318.40 L 217.40 314.30 L 220.70 310.50 L 224.40 307.20 L 228.50 304.50 L 233.10 302.20 L 240.30 299.90 L 256.10 298.30 L 263.40 296.10 L 267.90 293.80 L 272.00 291.00 L 275.80 287.70 L 279.10 284.00 L 281.90 279.90 L 284.10 275.40 L 285.40 271.80 L 287.00 264.30 L 287.50 221.40 L 288.20 215.60 L 289.30 210.10 L 290.90 204.70 L 292.90 199.40 L 295.20 194.30 L 298.00 189.50 L 301.10 184.90 L 304.50 180.60 L 308.20 176.60 L 312.30 172.90 L 316.60 169.40 L 321.20 166.30 L 326.00 163.60 L 331.10 161.20 L 336.40 159.20 L 341.80 157.60 L 347.30 156.50 L 353.10 155.80 L 359.10 155.60 L 683.70 155.60 L 688.80 155.80 L 698.60 157.40 L 707.90 160.50 L 712.20 162.50 L 720.40 167.50 L 724.10 170.50 L 730.80 177.20 L 736.50 184.90 L 740.90 193.40 L 744.00 202.70 L 745.60 212.50 L 746.00 222.80 L 746.60 227.70 L 747.60 232.60 L 750.70 241.80 L 752.70 246.20 L 757.80 254.30 L 764.00 261.50 L 771.20 267.70 L 779.40 272.70 L 783.70 274.80 L 793.00 277.90 L 797.80 278.80 L 807.90 279.70 L 827.40 279.70 L 834.20 280.00 L 840.70 280.80 L 847.10 282.00 L 853.20 283.80 L 859.20 286.10 L 864.90 288.80 L 870.40 291.90 L 875.60 295.40 L 880.50 299.30 L 885.10 303.50 L 889.40 308.10 L 893.30 313.00 L 896.80 318.20 L 899.90 323.70 L 902.60 329.40 L 904.90 335.40 L 906.70 341.60 L 907.90 347.90 L 908.70 354.40 L 909.00 361.20 L 909.00 641.50 Z" fill="#f3f6ff" fill-rule="nonzero" node-id="235" stroke="none" target-height="485.9" target-width="699.7" target-x="209.3" target-y="155.6"></path><path d="M 809.50 139.80 L 810.90 139.60 L 813.20 138.20 L 814.60 136.00 L 814.80 134.50 L 814.60 133.10 L 813.20 130.80 L 810.90 129.50 L 809.50 129.30 L 808.10 129.50 L 805.80 130.80 L 804.40 133.10 L 804.20 134.50 L 804.40 136.00 L 805.80 138.20 L 808.10 139.60 L 809.50 139.80 Z" fill="#54b7ff" fill-rule="nonzero" node-id="237" stroke="none" target-height="10.5" target-width="10.599976" target-x="804.2" target-y="129.3"></path><path d="M 841.60 165.60 L 846.10 164.80 L 849.80 162.60 L 852.50 159.30 L 853.50 157.30 L 854.30 152.90 L 853.50 148.50 L 851.30 144.80 L 848.00 142.00 L 843.90 140.50 L 841.60 140.30 L 839.30 140.50 L 837.20 141.10 L 833.50 143.30 L 830.70 146.60 L 829.80 148.50 L 829.00 152.90 L 829.80 157.30 L 830.70 159.30 L 833.50 162.60 L 837.20 164.80 L 841.60 165.60 Z" fill="none" node-id="239" stroke="#54b7ff" stroke-linecap="butt" stroke-width="1.053" target-height="25.300003" target-width="25.299988" target-x="829" target-y="140.3"></path><path d="M 319.10 107.50 L 322.20 107.80 L 325.20 107.60 L 328.00 106.90 L 330.70 105.60 L 333.10 104.00 L 335.20 102.00 L 337.00 99.60 L 338.30 96.90 L 339.20 93.90 L 339.50 90.80 L 339.20 87.80 L 338.50 85.00 L 337.20 82.30 L 335.60 79.90 L 333.60 77.70 L 331.20 76.00 L 328.50 74.70 L 325.50 73.80 L 322.40 73.50 L 319.40 73.80 L 316.50 74.50 L 313.80 75.70 L 311.50 77.40 L 309.30 79.40 L 307.60 81.80 L 306.30 84.40 L 305.40 87.50 L 305.10 90.60 L 305.30 93.60 L 306.10 96.40 L 307.30 99.10 L 308.90 101.50 L 311.00 103.60 L 313.40 105.40 L 316.00 106.70 L 319.10 107.50 Z" fill="#54b7ff" fill-rule="nonzero" node-id="241" stroke="none" target-height="34.300003" target-width="34.399994" target-x="305.1" target-y="73.5"></path><path d="M 294.40 140.70 L 298.40 141.20 L 302.30 141.20 L 306.10 140.60 L 309.80 139.60 L 313.20 138.10 L 316.50 136.20 L 319.50 133.80 L 322.10 131.20 L 324.50 128.10 L 326.40 124.80 L 327.90 121.20 L 328.90 117.30 L 329.40 113.20 L 329.30 109.40 L 328.80 105.60 L 327.70 101.90 L 326.20 98.40 L 324.30 95.20 L 322.00 92.20 L 319.30 89.50 L 316.30 87.20 L 313.00 85.30 L 309.30 83.80 L 305.40 82.80 L 301.40 82.30 L 297.50 82.30 L 293.70 82.90 L 290.00 83.90 L 286.50 85.40 L 283.30 87.30 L 280.30 89.70 L 277.60 92.30 L 275.30 95.40 L 273.40 98.70 L 271.90 102.30 L 270.90 106.20 L 270.40 110.30 L 270.40 114.10 L 271.00 117.90 L 272.10 121.60 L 273.50 125.10 L 275.50 128.30 L 277.80 131.30 L 280.50 134.00 L 283.50 136.30 L 286.80 138.20 L 290.40 139.70 L 294.40 140.70 Z" fill="none" node-id="243" stroke="#7268f5" stroke-linecap="butt" stroke-width="1.053" target-height="58.899994" target-width="59" target-x="270.4" target-y="82.3"></path><path d="M 316.00 651.40 L 314.50 651.10 L 313.30 650.20 L 312.60 649.00 L 312.40 647.40 L 338.90 393.70 L 349.40 394.80 L 319.60 648.20 L 319.20 649.50 L 318.40 650.50 L 317.30 651.20 L 316.00 651.40 Z" fill="#627ac1" fill-rule="evenodd" node-id="245" stroke="none" target-height="257.7" target-width="37" target-x="312.4" target-y="393.7"></path><path d="M 433.80 651.40 L 435.30 651.10 L 436.50 650.20 L 437.20 649.00 L 437.40 647.40 L 410.90 393.70 L 400.40 394.80 L 430.20 648.20 L 430.60 649.50 L 431.40 650.50 L 432.50 651.20 L 433.80 651.40 Z" fill="#627ac1" fill-rule="evenodd" node-id="247" stroke="none" target-height="257.7" target-width="37" target-x="400.4" target-y="393.7"></path><path d="M 602.40 651.40 L 600.90 651.10 L 599.70 650.20 L 599.00 649.00 L 598.80 647.40 L 625.30 393.70 L 635.80 394.80 L 606.00 648.20 L 605.60 649.50 L 604.80 650.50 L 603.80 651.20 L 602.40 651.40 Z" fill="#627ac1" fill-rule="evenodd" node-id="249" stroke="none" target-height="257.7" target-width="37" target-x="598.8" target-y="393.7"></path><path d="M 720.20 651.40 L 721.80 651.10 L 722.90 650.20 L 723.70 649.00 L 723.80 647.40 L 697.30 393.70 L 686.90 394.80 L 716.60 648.20 L 717.00 649.50 L 717.80 650.50 L 718.90 651.20 L 720.20 651.40 Z" fill="#627ac1" fill-rule="evenodd" node-id="251" stroke="none" target-height="257.7" target-width="36.899963" target-x="686.9" target-y="393.7"></path><path d="M 419.40 382.70 L 323.60 382.70 L 323.60 398.50 L 419.40 398.50 L 419.40 382.70 Z" fill="#a3baff" fill-rule="nonzero" node-id="253" stroke="none" target-height="15.799988" target-width="95.79999" target-x="323.6" target-y="382.7"></path><path d="M 716.40 382.70 L 419.40 382.70 L 419.40 398.50 L 716.40 398.50 L 716.40 382.70 Z" fill="#ccd9ff" fill-rule="nonzero" node-id="255" stroke="none" target-height="15.799988" target-width="297.00003" target-x="419.4" target-y="382.7"></path><path d="M 487.30 2.00 L 373.50 2.00 L 371.60 2.30 L 369.80 3.00 L 368.30 4.20 L 367.20 5.70 L 366.40 7.40 L 366.20 9.40 L 366.20 83.00 L 366.40 85.00 L 367.20 86.70 L 368.30 88.20 L 369.80 89.30 L 371.60 90.10 L 373.50 90.30 L 487.30 90.30 L 489.30 90.10 L 491.00 89.30 L 492.50 88.20 L 493.60 86.70 L 494.40 85.00 L 494.60 83.00 L 494.60 9.40 L 494.40 7.40 L 493.60 5.70 L 492.50 4.20 L 491.00 3.00 L 489.30 2.30 L 487.30 2.00 Z" fill="#ffffff" fill-rule="nonzero" node-id="257" stroke="#e5e5e5" stroke-linecap="butt" stroke-width="2.106" target-height="88.3" target-width="128.4" target-x="366.2" target-y="2"></path><path d="M 387.20 32.50 L 389.00 32.30 L 390.40 31.60 L 391.70 30.70 L 392.70 29.40 L 393.30 27.90 L 393.60 26.20 L 393.30 24.50 L 392.70 23.00 L 391.70 21.70 L 390.40 20.70 L 389.00 20.10 L 387.20 19.90 L 385.50 20.10 L 384.10 20.70 L 382.80 21.70 L 381.80 23.00 L 381.20 24.50 L 380.90 26.20 L 381.20 27.90 L 381.80 29.40 L 382.80 30.70 L 384.10 31.60 L 385.50 32.30 L 387.20 32.50 Z" fill="#a3b7ff" fill-rule="nonzero" node-id="259" stroke="none" target-height="12.6" target-width="12.700012" target-x="380.9" target-y="19.9"></path><path d="M 393.60 62.00 L 380.90 62.00 L 380.90 79.80 L 393.60 79.80 L 393.60 62.00 Z" fill="#5fffd8" fill-rule="nonzero" node-id="261" stroke="none" target-height="17.800003" target-width="12.700012" target-x="380.9" target-y="62"></path><path d="M 393.60 49.30 L 380.90 49.30 L 380.90 67.20 L 393.60 67.20 L 393.60 49.30 Z" fill="#1be3b3" fill-rule="nonzero" node-id="263" stroke="none" target-height="17.899998" target-width="12.700012" target-x="380.9" target-y="49.3"></path><path d="M 415.70 64.10 L 403.00 64.10 L 403.00 80.90 L 415.70 80.90 L 415.70 64.10 Z" fill="#5fffd8" fill-rule="nonzero" node-id="265" stroke="none" target-height="16.800003" target-width="12.700012" target-x="403" target-y="64.1"></path><path d="M 415.70 56.70 L 403.00 56.70 L 403.00 71.40 L 415.70 71.40 L 415.70 56.70 Z" fill="#1be3b3" fill-rule="nonzero" node-id="267" stroke="none" target-height="14.700001" target-width="12.700012" target-x="403" target-y="56.7"></path><path d="M 437.80 53.50 L 425.10 53.50 L 425.10 80.90 L 437.80 80.90 L 437.80 53.50 Z" fill="#5fffd8" fill-rule="nonzero" node-id="269" stroke="none" target-height="27.400002" target-width="12.699982" target-x="425.1" target-y="53.5"></path><path d="M 437.80 44.10 L 425.10 44.10 L 425.10 62.00 L 437.80 62.00 L 437.80 44.10 Z" fill="#1be3b3" fill-rule="nonzero" node-id="271" stroke="none" target-height="17.900002" target-width="12.699982" target-x="425.1" target-y="44.1"></path><path d="M 459.90 53.50 L 447.30 53.50 L 447.30 80.90 L 459.90 80.90 L 459.90 53.50 Z" fill="#5fffd8" fill-rule="nonzero" node-id="273" stroke="none" target-height="27.400002" target-width="12.600006" target-x="447.3" target-y="53.5"></path><path d="M 459.90 29.30 L 447.30 29.30 L 447.30 56.70 L 459.90 56.70 L 459.90 29.30 Z" fill="#1be3b3" fill-rule="nonzero" node-id="275" stroke="none" target-height="27.400002" target-width="12.600006" target-x="447.3" target-y="29.3"></path><path d="M 482.00 53.50 L 469.40 53.50 L 469.40 80.90 L 482.00 80.90 L 482.00 53.50 Z" fill="#5fffd8" fill-rule="nonzero" node-id="277" stroke="none" target-height="27.400002" target-width="12.600006" target-x="469.4" target-y="53.5"></path><path d="M 482.00 37.80 L 469.40 37.80 L 469.40 65.10 L 482.00 65.10 L 482.00 37.80 Z" fill="#1be3b3" fill-rule="nonzero" node-id="279" stroke="none" target-height="27.3" target-width="12.600006" target-x="469.4" target-y="37.8"></path><path d="M 453.40 200.80 L 453.70 198.60 L 454.60 196.60 L 455.90 194.80 L 457.60 193.50 L 459.60 192.70 L 461.90 192.40 L 656.50 192.40 L 658.70 192.70 L 660.70 193.50 L 662.40 194.80 L 663.80 196.60 L 664.60 198.60 L 664.90 200.80 L 664.90 336.00 L 664.60 338.30 L 663.80 340.30 L 662.40 342.00 L 660.70 343.30 L 658.70 344.20 L 656.50 344.50 L 461.90 344.50 L 459.60 344.20 L 457.60 343.30 L 455.90 342.00 L 454.60 340.30 L 453.70 338.30 L 453.40 336.00 L 453.40 200.80 Z" fill="#706ac7" fill-rule="nonzero" node-id="281" stroke="none" target-height="152.1" target-width="211.50003" target-x="453.4" target-y="192.4"></path><path d="M 460.20 205.90 L 460.50 203.60 L 461.30 201.60 L 462.70 199.90 L 464.40 198.60 L 466.40 197.70 L 468.60 197.40 L 649.70 197.40 L 652.00 197.70 L 654.00 198.60 L 655.70 199.90 L 657.00 201.60 L 657.80 203.60 L 658.20 205.90 L 658.20 331.00 L 657.80 333.20 L 657.00 335.20 L 655.70 336.90 L 654.00 338.30 L 652.00 339.10 L 649.70 339.40 L 468.60 339.40 L 466.40 339.10 L 464.40 338.30 L 462.70 336.90 L 461.30 335.20 L 460.50 333.20 L 460.20 331.00 L 460.20 205.90 Z" fill="#282f48" fill-rule="nonzero" node-id="283" stroke="none" target-height="142" target-width="198" target-x="460.2" target-y="197.4"></path><path d="M 580.30 344.50 L 538.00 344.50 L 538.00 374.10 L 580.30 374.10 L 580.30 344.50 Z" fill="#2c2770" fill-rule="nonzero" node-id="285" stroke="none" target-height="29.600006" target-width="42.299988" target-x="538" target-y="344.5"></path><path d="M 488.90 378.30 L 489.30 376.60 L 490.20 375.30 L 491.50 374.40 L 493.20 374.10 L 626.00 374.10 L 627.70 374.40 L 629.00 375.30 L 629.90 376.60 L 630.20 378.30 L 629.90 379.90 L 629.00 381.30 L 627.70 382.20 L 626.00 382.50 L 493.20 382.50 L 491.50 382.20 L 490.20 381.30 L 489.30 379.90 L 488.90 378.30 Z" fill="#706ac7" fill-rule="nonzero" node-id="287" stroke="none" target-height="8.399994" target-width="141.30002" target-x="488.9" target-y="374.1"></path><path d="M 461.30 203.30 L 460.50 205.50 L 460.20 208.00 L 460.20 328.90 L 460.80 332.60 L 462.70 335.70 L 465.40 338.00 L 468.80 339.20 L 649.50 339.20 L 651.30 338.80 L 654.40 336.90 L 656.70 334.20 L 657.50 332.60 L 658.20 328.90 L 658.20 313.60 L 657.40 311.20 L 655.80 307.80 L 653.70 304.50 L 648.40 298.50 L 642.80 294.30 L 639.60 292.60 L 636.10 291.10 L 632.10 290.00 L 628.00 289.30 L 623.40 289.10 L 618.30 289.50 L 613.30 290.40 L 607.70 292.10 L 596.80 296.50 L 592.00 298.00 L 582.40 299.90 L 575.80 300.20 L 569.30 300.00 L 562.80 299.10 L 556.40 297.60 L 550.10 295.60 L 544.00 292.90 L 538.20 289.80 L 532.70 286.10 L 527.50 282.00 L 522.70 277.40 L 518.30 272.30 L 514.50 266.80 L 509.70 257.90 L 507.80 253.20 L 504.40 242.10 L 502.20 236.70 L 499.70 231.90 L 496.80 227.30 L 493.80 223.30 L 487.10 216.50 L 480.20 211.30 L 474.80 208.20 L 470.00 205.90 L 465.20 204.20 L 461.30 203.30 Z" fill="#2f3b67" fill-rule="evenodd" node-id="289" stroke="none" target-height="135.90001" target-width="198" target-x="460.2" target-y="203.3"></path><g node-id="572"><path d="M 608.10 282.80 L 611.20 282.50 L 614.00 281.70 L 616.60 280.50 L 619.00 278.80 L 621.00 276.80 L 622.60 274.50 L 623.90 271.90 L 624.70 269.00 L 624.90 266.00 L 624.70 262.90 L 623.90 260.10 L 622.60 257.50 L 621.00 255.10 L 619.00 253.10 L 616.60 251.50 L 614.00 250.20 L 611.20 249.40 L 608.10 249.20 L 605.00 249.40 L 602.20 250.20 L 599.60 251.50 L 597.20 253.10 L 595.20 255.10 L 593.60 257.50 L 592.30 260.10 L 591.50 262.90 L 591.30 266.00 L 591.50 269.00 L 592.30 271.90 L 593.60 274.50 L 595.20 276.80 L 597.20 278.80 L 599.60 280.50 L 602.20 281.70 L 605.00 282.50 L 608.10 282.80 Z" fill="#324178" fill-rule="nonzero" group-id="1" node-id="293" stroke="none" target-height="33.59999" target-width="33.600037" target-x="591.3" target-y="249.2"></path></g><g node-id="573"><path d="M 624.90 266.00 L 624.80 263.50 L 623.30 258.80 L 620.60 254.70 L 616.80 251.60 L 614.50 250.40 L 612.20 249.70 L 607.30 249.20 L 602.40 250.10 L 598.10 252.50 L 596.20 254.10 L 608.10 266.00 L 624.90 266.00 Z" fill="#ffffff" fill-rule="nonzero" group-id="2" node-id="298" stroke="none" target-height="16.800003" target-width="28.700012" target-x="596.2" target-y="249.2"></path></g><g node-id="574"><path d="M 560.20 282.80 L 563.30 282.50 L 566.10 281.70 L 568.70 280.50 L 571.10 278.80 L 573.10 276.80 L 574.80 274.50 L 576.00 271.90 L 576.80 269.00 L 577.10 266.00 L 576.80 262.90 L 576.00 260.10 L 574.80 257.50 L 573.10 255.10 L 571.10 253.10 L 568.70 251.50 L 566.10 250.20 L 563.30 249.40 L 560.20 249.20 L 557.20 249.40 L 554.30 250.20 L 551.70 251.50 L 549.40 253.10 L 547.40 255.10 L 545.70 257.50 L 544.40 260.10 L 543.70 262.90 L 543.40 266.00 L 543.70 269.00 L 544.40 271.90 L 545.70 274.50 L 547.40 276.80 L 549.40 278.80 L 551.70 280.50 L 554.30 281.70 L 557.20 282.50 L 560.20 282.80 Z" fill="#324178" fill-rule="nonzero" group-id="3" node-id="303" stroke="none" target-height="33.59999" target-width="33.69995" target-x="543.4" target-y="249.2"></path></g><g node-id="575"><path d="M 577.10 266.00 L 576.80 263.20 L 576.20 260.60 L 575.10 258.00 L 573.60 255.70 L 571.80 253.70 L 569.60 252.00 L 567.20 250.60 L 564.60 249.70 L 561.90 249.20 L 559.10 249.20 L 556.40 249.60 L 553.80 250.40 L 551.30 251.70 L 549.10 253.30 L 547.20 255.30 L 545.60 257.60 L 544.50 260.00 L 543.70 262.70 L 543.40 265.40 L 543.50 268.20 L 544.10 270.90 L 545.10 273.40 L 546.50 275.80 L 548.30 277.90 L 560.20 266.00 L 577.10 266.00 Z" fill="#ffffff" fill-rule="nonzero" group-id="4" node-id="308" stroke="none" target-height="28.699997" target-width="33.69995" target-x="543.4" target-y="249.2"></path></g><g node-id="576"><path d="M 510.60 282.80 L 513.70 282.50 L 516.50 281.70 L 519.10 280.50 L 521.40 278.80 L 523.50 276.80 L 525.10 274.50 L 526.40 271.90 L 527.10 269.00 L 527.40 266.00 L 527.10 262.90 L 526.40 260.10 L 525.10 257.50 L 523.50 255.10 L 521.40 253.10 L 519.10 251.50 L 516.50 250.20 L 513.70 249.40 L 510.60 249.20 L 507.50 249.40 L 504.70 250.20 L 502.10 251.50 L 499.70 253.10 L 497.70 255.10 L 496.00 257.50 L 494.80 260.10 L 494.00 262.90 L 493.70 266.00 L 494.00 269.00 L 494.80 271.90 L 496.00 274.50 L 497.70 276.80 L 499.70 278.80 L 502.10 280.50 L 504.70 281.70 L 507.50 282.50 L 510.60 282.80 Z" fill="#324178" fill-rule="nonzero" group-id="5" node-id="313" stroke="none" target-height="33.59999" target-width="33.700012" target-x="493.7" target-y="249.2"></path></g><g node-id="577"><path d="M 527.40 266.00 L 526.70 261.10 L 524.60 256.60 L 521.30 253.00 L 517.00 250.40 L 512.20 249.20 L 507.30 249.50 L 502.60 251.10 L 498.70 254.10 L 495.70 258.00 L 494.10 262.70 L 493.80 267.60 L 495.00 272.40 L 497.60 276.70 L 501.20 280.00 L 505.70 282.10 L 510.60 282.80 L 510.60 266.00 L 527.40 266.00 Z" fill="#ffffff" fill-rule="nonzero" group-id="6" node-id="318" stroke="none" target-height="33.59999" target-width="33.600037" target-x="493.8" target-y="249.2"></path></g><path d="M 490.20 311.50 L 490.80 310.00 L 492.30 309.40 L 532.30 309.40 L 533.80 310.00 L 534.40 311.50 L 533.80 313.00 L 532.30 313.60 L 492.30 313.60 L 490.80 313.00 L 490.20 311.50 Z" fill="#ffffff" fill-rule="nonzero" node-id="321" stroke="none" target-height="4.200012" target-width="44.200012" target-x="490.2" target-y="309.4"></path><path d="M 490.20 322.70 L 490.80 321.20 L 492.30 320.60 L 521.80 320.60 L 523.30 321.20 L 523.90 322.70 L 523.30 324.20 L 521.80 324.80 L 492.30 324.80 L 490.80 324.20 L 490.20 322.70 Z" fill="#ffffff" fill-rule="nonzero" node-id="323" stroke="none" target-height="4.1999817" target-width="33.700012" target-x="490.2" target-y="320.6"></path><path d="M 605.40 230.00 L 606.10 228.50 L 607.50 227.90 L 622.80 227.90 L 624.30 228.50 L 624.90 230.00 L 624.30 231.50 L 622.80 232.10 L 607.50 232.10 L 606.10 231.50 L 605.40 230.00 Z" fill="#ffffff" fill-rule="nonzero" node-id="325" stroke="none" target-height="4.200012" target-width="19.5" target-x="605.4" target-y="227.9"></path><path d="M 594.80 321.80 L 596.20 321.60 L 598.60 320.20 L 599.90 317.90 L 600.10 316.40 L 599.40 313.80 L 597.50 311.90 L 596.20 311.30 L 594.80 311.10 L 592.10 311.90 L 590.20 313.80 L 589.50 316.40 L 589.70 317.90 L 591.00 320.20 L 593.40 321.60 L 594.80 321.80 Z" fill="#ffffff" fill-rule="nonzero" node-id="327" stroke="none" target-height="10.699982" target-width="10.599976" target-x="589.5" target-y="311.1"></path><path d="M 614.30 321.80 L 615.70 321.60 L 618.10 320.20 L 619.40 317.90 L 619.60 316.40 L 618.90 313.80 L 617.00 311.90 L 615.70 311.30 L 614.30 311.10 L 611.60 311.90 L 609.70 313.80 L 609.00 316.40 L 609.20 317.90 L 610.50 320.20 L 612.90 321.60 L 614.30 321.80 Z" fill="#ffffff" fill-rule="nonzero" node-id="329" stroke="none" target-height="10.699982" target-width="10.599976" target-x="609" target-y="311.1"></path><path d="M 523.00 222.60 L 497.00 222.80 L 495.90 223.20 L 494.30 224.80 L 493.70 227.00 L 494.30 229.30 L 495.90 230.80 L 497.00 231.30 L 524.20 231.30 L 525.20 230.80 L 526.80 229.30 L 527.40 227.00 L 527.30 225.80 L 526.10 223.90 L 524.20 222.80 L 523.00 222.60 Z" fill="#ffffff" fill-rule="nonzero" node-id="331" stroke="none" target-height="8.699997" target-width="33.700012" target-x="493.7" target-y="222.6"></path><path d="M 619.60 209.30 L 499.10 209.30 L 496.00 209.60 L 493.20 210.40 L 490.60 211.60 L 488.20 213.30 L 486.20 215.30 L 484.50 217.60 L 483.30 220.30 L 482.50 223.10 L 482.20 226.10 L 482.20 281.00 L 482.50 284.10 L 483.30 286.90 L 484.50 289.50 L 486.20 291.90 L 488.20 293.90 L 490.60 295.60 L 493.20 296.80 L 496.00 297.60 L 499.10 297.90 L 619.60 297.90 L 622.70 297.60 L 625.50 296.80 L 628.10 295.60 L 630.50 293.90 L 632.50 291.90 L 634.20 289.50 L 635.40 286.90 L 636.20 284.10 L 636.50 281.00 L 636.50 226.10 L 636.20 223.10 L 635.40 220.30 L 634.20 217.60 L 632.50 215.30 L 630.50 213.30 L 628.10 211.60 L 625.50 210.40 L 622.70 209.60 L 619.60 209.30 Z M 499.10 208.40 L 495.80 208.70 L 492.90 209.50 L 490.10 210.80 L 487.60 212.60 L 485.50 214.70 L 483.70 217.20 L 482.40 219.90 L 481.60 222.90 L 481.30 226.10 L 481.30 281.00 L 481.60 284.30 L 482.40 287.20 L 483.70 290.00 L 485.50 292.50 L 487.60 294.60 L 490.10 296.30 L 492.90 297.60 L 495.80 298.40 L 499.10 298.70 L 619.60 298.70 L 622.90 298.40 L 625.80 297.60 L 628.60 296.30 L 631.10 294.60 L 633.20 292.50 L 634.90 290.00 L 636.20 287.20 L 637.00 284.30 L 637.30 281.00 L 637.30 226.10 L 637.00 222.90 L 636.20 219.90 L 634.90 217.20 L 633.20 214.70 L 631.10 212.60 L 628.60 210.80 L 625.80 209.50 L 622.90 208.70 L 619.60 208.40 L 499.10 208.40 Z" fill="#ffffff" fill-rule="evenodd" node-id="333" stroke="none" target-height="90.30002" target-width="156" target-x="481.3" target-y="208.4"></path><path d="M 481.60 329.10 L 403.00 329.10 L 414.00 382.70 L 492.50 382.70 L 481.60 329.10 Z" fill="#be7430" fill-rule="nonzero" node-id="335" stroke="none" target-height="53.600006" target-width="89.5" target-x="403" target-y="329.1"></path><path d="M 403.40 329.10 L 481.00 329.10 L 470.10 382.70 L 392.50 382.70 L 403.40 329.10 Z" fill="#ff9330" fill-rule="nonzero" node-id="337" stroke="none" target-height="53.600006" target-width="88.5" target-x="392.5" target-y="329.1"></path><path d="M 408.00 337.50 L 408.90 336.00 L 410.60 335.40 L 469.90 335.40 L 471.10 335.70 L 471.90 336.40 L 472.50 337.40 L 472.50 338.60 L 464.40 376.40 L 463.50 377.90 L 461.80 378.50 L 402.50 378.50 L 401.30 378.30 L 400.50 377.60 L 400.00 376.50 L 399.90 375.30 L 408.00 337.50 Z" fill="#ffb36c" fill-rule="nonzero" node-id="339" stroke="none" target-height="43.100006" target-width="72.600006" target-x="399.9" target-y="335.4"></path><path d="M 470.40 351.20 L 464.70 377.80 L 464.30 378.30 L 463.70 378.50 L 392.50 378.50 L 404.10 377.90 L 413.40 376.50 L 417.90 375.50 L 422.20 374.20 L 428.10 371.40 L 429.90 370.10 L 432.80 367.10 L 435.70 365.30 L 438.00 364.60 L 440.40 364.30 L 449.30 364.30 L 452.90 363.50 L 454.30 362.60 L 457.90 358.60 L 461.00 357.50 L 465.80 356.80 L 467.20 356.20 L 468.40 355.20 L 469.50 353.70 L 470.40 351.20 Z" fill="#f2a864" fill-rule="nonzero" node-id="341" stroke="none" target-height="27.299988" target-width="77.899994" target-x="392.5" target-y="351.2"></path><path d="M 407.80 326.40 L 408.30 328.60 L 407.10 328.60 L 406.70 327.20 L 405.70 326.60 L 405.10 326.70 L 404.40 327.80 L 404.40 329.40 L 405.10 330.40 L 406.10 330.50 L 406.40 332.10 L 405.60 332.30 L 404.10 331.60 L 403.20 329.70 L 403.00 328.50 L 403.50 326.40 L 404.10 325.60 L 405.70 324.90 L 407.20 325.60 L 407.80 326.40 Z" fill="#c4c4c4" fill-rule="evenodd" node-id="343" stroke="none" target-height="7.399994" target-width="5.299988" target-x="403" target-y="324.9"></path><path d="M 468.90 326.40 L 469.40 328.60 L 468.20 328.60 L 467.80 327.20 L 466.70 326.60 L 466.20 326.70 L 465.40 327.80 L 465.40 329.40 L 466.20 330.40 L 467.20 330.50 L 467.50 332.10 L 466.70 332.30 L 465.20 331.60 L 464.20 329.70 L 464.10 328.50 L 464.60 326.40 L 465.20 325.60 L 466.80 324.90 L 468.30 325.60 L 468.90 326.40 Z" fill="#c4c4c4" fill-rule="evenodd" node-id="345" stroke="none" target-height="7.399994" target-width="5.299988" target-x="464.1" target-y="324.9"></path><path d="M 448.90 326.40 L 449.40 328.60 L 448.20 328.60 L 447.70 327.20 L 446.70 326.60 L 446.20 326.70 L 445.40 327.80 L 445.40 329.40 L 446.20 330.40 L 447.20 330.50 L 447.50 332.10 L 446.70 332.30 L 445.20 331.60 L 444.20 329.70 L 444.10 328.50 L 444.60 326.40 L 445.20 325.60 L 446.70 324.90 L 448.30 325.60 L 448.90 326.40 Z" fill="#c4c4c4" fill-rule="evenodd" node-id="347" stroke="none" target-height="7.399994" target-width="5.299988" target-x="444.1" target-y="324.9"></path><path d="M 428.90 326.40 L 429.40 328.60 L 428.20 328.60 L 427.70 327.20 L 426.70 326.60 L 426.20 326.70 L 425.40 327.80 L 425.40 329.40 L 426.20 330.40 L 427.20 330.50 L 427.50 332.10 L 426.70 332.30 L 425.20 331.60 L 424.20 329.70 L 424.10 328.50 L 424.60 326.40 L 425.20 325.60 L 426.70 324.90 L 428.30 325.60 L 428.90 326.40 Z" fill="#c4c4c4" fill-rule="evenodd" node-id="349" stroke="none" target-height="7.399994" target-width="5.299988" target-x="424.1" target-y="324.9"></path><path d="M 412.90 343.50 L 413.20 342.80 L 414.40 341.90 L 418.70 341.70 L 419.70 342.00 L 420.40 342.60 L 420.90 343.40 L 420.90 344.40 L 420.50 346.20 L 419.70 347.50 L 418.30 348.00 L 414.80 348.00 L 413.80 347.80 L 413.00 347.20 L 412.60 346.40 L 412.90 343.50 Z" fill="#ffdab8" fill-rule="nonzero" node-id="351" stroke="none" target-height="6.299988" target-width="8.299988" target-x="412.6" target-y="341.7"></path><path d="M 428.70 343.50 L 429.00 342.80 L 430.20 341.90 L 434.50 341.70 L 435.50 342.00 L 436.20 342.60 L 436.70 343.40 L 436.70 344.40 L 436.30 346.20 L 435.50 347.50 L 434.10 348.00 L 430.50 348.00 L 429.60 347.80 L 428.80 347.20 L 428.40 346.40 L 428.70 343.50 Z" fill="#ffdab8" fill-rule="nonzero" node-id="353" stroke="none" target-height="6.299988" target-width="8.300018" target-x="428.4" target-y="341.7"></path><path d="M 443.50 343.50 L 443.80 342.80 L 444.90 341.90 L 449.20 341.70 L 450.20 342.00 L 451.00 342.60 L 451.40 343.40 L 451.40 344.40 L 451.10 346.20 L 450.30 347.50 L 448.90 348.00 L 445.30 348.00 L 444.30 347.80 L 443.10 346.40 L 443.50 343.50 Z" fill="#ffdab8" fill-rule="nonzero" node-id="355" stroke="none" target-height="6.299988" target-width="8.299988" target-x="443.1" target-y="341.7"></path><path d="M 459.30 343.50 L 459.50 342.80 L 460.70 341.90 L 465.00 341.70 L 466.00 342.00 L 467.20 343.40 L 466.90 346.20 L 466.60 347.00 L 465.40 347.90 L 461.10 348.00 L 460.10 347.80 L 458.90 346.40 L 459.30 343.50 Z" fill="#ffdab8" fill-rule="nonzero" node-id="357" stroke="none" target-height="6.299988" target-width="8.300018" target-x="458.9" target-y="341.7"></path><path d="M 409.80 355.10 L 410.10 354.40 L 411.20 353.40 L 415.50 353.30 L 416.50 353.50 L 417.70 355.00 L 417.40 357.80 L 417.10 358.50 L 415.90 359.50 L 411.60 359.60 L 410.60 359.40 L 409.90 358.80 L 409.40 357.90 L 409.80 355.10 Z" fill="#ffdab8" fill-rule="nonzero" node-id="359" stroke="none" target-height="6.3000183" target-width="8.300018" target-x="409.4" target-y="353.3"></path><path d="M 425.60 355.10 L 425.90 354.40 L 427.00 353.40 L 431.30 353.30 L 432.30 353.50 L 433.10 354.10 L 433.50 355.00 L 433.20 357.80 L 432.90 358.50 L 431.70 359.50 L 427.40 359.60 L 426.40 359.40 L 425.20 357.90 L 425.60 355.10 Z" fill="#ffdab8" fill-rule="nonzero" node-id="361" stroke="none" target-height="6.3000183" target-width="8.299988" target-x="425.2" target-y="353.3"></path><path d="M 440.30 355.10 L 440.60 354.40 L 441.70 353.40 L 446.10 353.30 L 447.10 353.50 L 447.80 354.10 L 448.20 355.00 L 447.90 357.80 L 447.60 358.50 L 446.50 359.50 L 442.10 359.60 L 441.10 359.40 L 440.00 357.90 L 440.30 355.10 Z" fill="#ffdab8" fill-rule="nonzero" node-id="363" stroke="none" target-height="6.3000183" target-width="8.200012" target-x="440" target-y="353.3"></path><path d="M 456.10 355.10 L 456.40 354.40 L 457.50 353.40 L 461.90 353.30 L 462.90 353.50 L 463.60 354.10 L 464.00 355.00 L 463.70 357.80 L 463.40 358.50 L 462.30 359.50 L 457.90 359.60 L 456.90 359.40 L 455.80 357.90 L 456.10 355.10 Z" fill="#ffdab8" fill-rule="nonzero" node-id="365" stroke="none" target-height="6.3000183" target-width="8.200012" target-x="455.8" target-y="353.3"></path><path d="M 406.60 366.70 L 406.90 365.90 L 408.00 365.00 L 412.40 364.90 L 413.40 365.10 L 414.10 365.70 L 414.50 366.50 L 414.60 367.60 L 414.20 369.40 L 413.40 370.70 L 412.00 371.20 L 408.40 371.20 L 407.40 370.90 L 406.70 370.30 L 406.30 369.50 L 406.60 366.70 Z" fill="#ffdab8" fill-rule="nonzero" node-id="367" stroke="none" target-height="6.3000183" target-width="8.300018" target-x="406.3" target-y="364.9"></path><path d="M 422.40 366.70 L 422.70 365.90 L 423.80 365.00 L 428.20 364.90 L 429.20 365.10 L 429.90 365.70 L 430.30 366.50 L 430.40 367.60 L 430.00 369.40 L 429.20 370.70 L 427.80 371.20 L 424.20 371.20 L 423.20 370.90 L 422.50 370.30 L 422.10 369.50 L 422.40 366.70 Z" fill="#ffdab8" fill-rule="nonzero" node-id="369" stroke="none" target-height="6.3000183" target-width="8.299988" target-x="422.1" target-y="364.9"></path><path d="M 437.20 366.70 L 437.40 365.90 L 438.60 365.00 L 442.90 364.90 L 443.90 365.10 L 444.70 365.70 L 445.10 366.50 L 445.10 367.60 L 444.70 369.40 L 444.00 370.70 L 442.50 371.20 L 439.00 371.20 L 438.00 370.90 L 437.20 370.30 L 436.80 369.50 L 437.20 366.70 Z" fill="#ffdab8" fill-rule="nonzero" node-id="371" stroke="none" target-height="6.3000183" target-width="8.300018" target-x="436.8" target-y="364.9"></path><path d="M 452.90 366.70 L 453.20 365.90 L 454.40 365.00 L 458.70 364.90 L 459.70 365.10 L 460.40 365.70 L 460.90 366.50 L 460.50 369.40 L 460.20 370.10 L 459.10 371.00 L 454.80 371.20 L 453.80 370.90 L 453.00 370.30 L 452.60 369.50 L 452.90 366.70 Z" fill="#ffdab8" fill-rule="nonzero" node-id="373" stroke="none" target-height="6.3000183" target-width="8.299988" target-x="452.6" target-y="364.9"></path><path d="M 322.30 639.70 L 309.90 629.00 L 307.70 626.30 L 305.90 621.60 L 305.20 618.50 L 304.50 612.50 L 304.60 606.10 L 286.80 605.10 L 286.80 624.30 L 283.90 634.40 L 320.90 641.60 L 322.30 639.70 Z" fill="#ffae64" fill-rule="nonzero" node-id="375" stroke="none" target-height="36.5" target-width="38.399994" target-x="283.9" target-y="605.1"></path><path d="M 316.10 651.20 L 328.00 651.20 L 330.20 650.60 L 331.80 649.00 L 332.30 647.40 L 332.20 645.80 L 331.60 644.30 L 330.40 643.10 L 314.80 632.10 L 308.90 626.70 L 303.20 628.90 L 296.90 629.60 L 294.50 629.40 L 290.80 628.20 L 288.60 626.90 L 285.80 624.30 L 284.50 628.30 L 283.70 632.30 L 283.40 636.30 L 283.60 640.40 L 284.30 644.40 L 285.80 649.30 L 299.80 650.20 L 302.20 648.30 L 312.30 650.90 L 316.10 651.20 Z" fill="#2c2770" fill-rule="nonzero" node-id="377" stroke="none" target-height="26.900024" target-width="48.899994" target-x="283.4" target-y="624.3"></path><path d="M 193.60 639.70 L 206.00 629.00 L 208.30 626.30 L 210.10 621.60 L 210.80 618.50 L 211.40 612.50 L 211.40 606.10 L 229.20 605.10 L 229.20 624.30 L 232.00 634.40 L 195.10 641.60 L 193.60 639.70 Z" fill="#ffae64" fill-rule="nonzero" node-id="379" stroke="none" target-height="36.5" target-width="38.399994" target-x="193.6" target-y="605.1"></path><path d="M 199.80 651.20 L 187.90 651.20 L 185.80 650.60 L 184.20 649.00 L 183.60 647.40 L 183.70 645.80 L 184.40 644.30 L 185.60 643.10 L 201.10 632.10 L 207.10 626.70 L 212.80 628.90 L 219.10 629.60 L 221.40 629.40 L 225.10 628.20 L 227.40 626.90 L 230.10 624.30 L 231.40 628.30 L 232.20 632.30 L 232.50 636.30 L 232.30 640.40 L 231.60 644.40 L 230.10 649.30 L 216.20 650.20 L 213.80 648.30 L 203.70 650.90 L 199.80 651.20 Z" fill="#2c2770" fill-rule="nonzero" node-id="381" stroke="none" target-height="26.900024" target-width="48.899994" target-x="183.6" target-y="624.3"></path><path d="M 234.80 339.70 L 238.80 320.10 L 319.00 317.70 L 324.90 363.90 L 325.60 381.00 L 314.70 618.60 L 286.30 618.60 L 280.60 389.20 L 238.80 618.60 L 208.50 618.60 L 232.00 398.30 L 231.20 386.60 L 231.00 377.20 L 231.20 367.80 L 232.00 358.30 L 233.20 349.00 L 234.80 339.70 Z" fill="#2c2770" fill-rule="nonzero" node-id="383" stroke="none" target-height="300.89996" target-width="117.100006" target-x="208.5" target-y="317.7"></path><g node-id="578"><path d="M 243.60 318.20 L 240.10 341.50 L 237.70 366.00 L 236.10 395.70 L 235.90 412.30 L 233.80 432.60 L 221.60 543.30 L 214.80 599.10 L 211.90 619.50" fill="none" group-id="7" node-id="387" stroke="#ffffff" stroke-linecap="butt" stroke-width="1.053" target-height="301.3" target-width="31.700012" target-x="211.9" target-y="318.2"></path><path d="M 281.00 389.70 L 282.50 394.00 L 284.60 402.40 L 286.40 412.20 L 288.30 425.80 L 289.80 446.40 L 290.20 459.30 L 290.40 501.20 L 290.20 618.60" fill="none" group-id="7" node-id="389" stroke="#ffffff" stroke-linecap="butt" stroke-width="1.053" target-height="228.89996" target-width="9.399994" target-x="281" target-y="389.7"></path></g><path d="M 378.70 192.90 L 355.50 204.70 L 358.00 230.30 L 382.40 219.50 L 386.70 217.30 L 390.60 214.80 L 394.20 211.70 L 397.40 208.30 L 400.30 204.70 L 402.70 200.60 L 404.60 196.40 L 406.10 191.90 L 407.10 187.20 L 415.40 130.70 L 422.10 123.10 L 427.30 116.30 L 428.50 114.50 L 429.10 112.40 L 429.40 110.30 L 429.10 108.20 L 427.80 105.40 L 425.40 103.50 L 415.70 98.90 L 422.00 83.50 L 422.20 82.40 L 422.00 81.30 L 421.30 80.50 L 419.40 79.90 L 417.80 80.60 L 417.30 81.20 L 407.50 98.50 L 403.80 98.00 L 402.00 98.90 L 398.20 106.00 L 397.60 107.90 L 397.30 109.70 L 397.60 111.70 L 400.10 122.70 L 378.70 192.90 Z" fill="#ff9330" fill-rule="nonzero" node-id="392" stroke="none" target-height="150.4" target-width="73.899994" target-x="355.5" target-y="79.9"></path><path d="M 422.30 102.10 L 416.00 113.90 L 414.40 114.40 L 413.50 114.20 L 412.30 113.10 L 412.20 111.40 L 413.20 108.10" fill="none" node-id="394" stroke="#000000" stroke-linecap="butt" stroke-width="1.053" target-height="12.300003" target-width="10.099976" target-x="412.2" target-y="102.1"></path><path d="M 427.60 104.70 L 420.00 115.80 L 418.40 116.10 L 417.00 115.30 L 416.50 113.70 L 417.00 112.30" fill="none" node-id="396" stroke="#000000" stroke-linecap="butt" stroke-width="1.053" target-height="11.400002" target-width="11.100006" target-x="416.5" target-y="104.7"></path><path d="M 428.50 112.70 L 422.80 120.60 L 421.40 121.60 L 419.70 121.30 L 418.60 120.00 L 418.60 118.40 L 419.70 115.70" fill="none" node-id="398" stroke="#000000" stroke-linecap="butt" stroke-width="1.053" target-height="8.900002" target-width="9.899994" target-x="418.6" target-y="112.7"></path><path d="M 409.50 99.40 L 419.30 103.50 L 419.80 103.90 L 420.30 105.00 L 419.50 106.90 L 418.50 107.80 L 417.30 108.40 L 415.80 108.50 L 406.90 107.80 L 408.70 110.40 L 409.60 112.60 L 410.90 118.30 L 411.20 121.50" fill="none" node-id="400" stroke="#000000" stroke-linecap="butt" stroke-width="1.053" target-height="22.099998" target-width="13.399994" target-x="406.9" target-y="99.4"></path><path d="M 237.60 215.10 L 259.30 209.40 L 315.60 209.40 L 322.40 209.10 L 329.00 208.20 L 335.60 206.60 L 368.60 197.30 L 374.30 226.80 L 325.80 256.20 L 321.40 274.20 L 325.30 301.20 L 325.20 306.50 L 323.70 311.40 L 320.90 315.60 L 317.10 318.80 L 312.40 320.90 L 307.10 321.60 L 242.00 320.10 L 239.70 319.70 L 237.70 318.80 L 236.00 317.40 L 234.70 315.60 L 234.00 313.50 L 233.80 311.20 L 235.90 274.70 L 228.20 289.40 L 200.40 283.40 L 210.30 242.80 L 211.70 238.30 L 213.60 234.20 L 215.90 230.40 L 218.60 226.80 L 221.70 223.60 L 225.20 220.80 L 229.10 218.50 L 233.10 216.50 L 237.60 215.10 Z" fill="#54b7ff" fill-rule="nonzero" node-id="402" stroke="none" target-height="124.3" target-width="173.9" target-x="200.4" target-y="197.3"></path><path d="M 259.30 209.40 L 237.60 215.10 L 233.10 216.50 L 229.10 218.50 L 225.20 220.80 L 221.70 223.60 L 218.60 226.80 L 215.90 230.40 L 213.60 234.20 L 211.70 238.30 L 210.30 242.80 L 200.40 283.40 L 228.20 289.40 L 235.90 274.70 L 201.40 486.70 L 201.40 488.30 L 201.80 489.70 L 203.60 491.90 L 204.90 492.50 L 206.50 492.80 L 232.00 493.40 L 264.00 374.90 L 264.00 216.60 L 291.90 216.60 L 298.30 374.90 L 316.10 495.50 L 342.20 496.20 L 343.70 496.00 L 345.10 495.40 L 346.20 494.50 L 347.00 493.30 L 347.50 491.90 L 347.50 490.30 L 321.40 274.20 L 325.80 256.20 L 374.30 226.80 L 368.60 197.30 L 335.60 206.60 L 329.00 208.20 L 322.40 209.10 L 315.60 209.40 L 259.30 209.40 Z" fill="#ffe071" fill-rule="evenodd" node-id="404" stroke="none" target-height="298.90002" target-width="173.9" target-x="200.4" target-y="197.3"></path><path d="M 301.90 166.10 L 288.30 164.00" fill="none" node-id="406" stroke="#000000" stroke-linecap="butt" stroke-width="1.053" target-height="2.100006" target-width="13.600006" target-x="288.3" target-y="164"></path><path d="M 259.40 204.60 L 260.00 202.50 L 260.80 195.50 L 260.90 183.10 L 260.70 176.20 L 270.40 178.90 L 277.30 182.10 L 282.20 185.70 L 284.80 189.10 L 285.70 191.10 L 286.10 193.10 L 285.70 199.10 L 286.20 204.10 L 287.60 207.50 L 289.80 209.30 L 291.00 209.50 L 292.50 214.40 L 292.70 217.30 L 292.30 220.20 L 291.60 222.00 L 290.60 223.70 L 289.10 225.40 L 287.40 226.70 L 284.90 227.80 L 281.70 228.70 L 278.40 229.00 L 275.20 228.80 L 272.20 228.10 L 266.50 225.80 L 260.40 221.40 L 257.50 218.60 L 253.30 213.20 L 256.10 210.50 L 257.70 208.00 L 259.40 204.60 Z" fill="#ff9330" fill-rule="nonzero" node-id="408" stroke="none" target-height="52.800003" target-width="39.40001" target-x="253.3" target-y="176.2"></path><g node-id="579"><path d="M 287.90 205.30 L 284.10 204.70 L 277.90 202.70 L 275.30 201.30 L 272.00 199.10 L 269.30 196.60 L 267.10 194.00 L 263.60 188.30 L 261.20 181.40 L 260.70 178.20 L 287.90 193.40 L 293.00 196.70 L 297.20 200.30 L 298.30 201.60 L 298.90 203.50 L 298.70 204.20 L 297.90 204.80 L 296.40 205.40 L 293.40 205.70 L 287.90 205.30 Z" fill="#d76767" fill-rule="nonzero" group-id="8" node-id="412" stroke="none" target-height="27.5" target-width="38.19998" target-x="260.7" target-y="178.2"></path></g><path d="M 261.20 177.90 L 261.70 181.50 L 263.60 185.80 L 266.90 189.90 L 271.40 193.30 L 274.20 194.70 L 277.10 195.60 L 280.40 196.20 L 284.20 196.30 L 288.10 195.40 L 289.70 194.40 L 291.10 193.10 L 293.90 188.40 L 296.30 180.30 L 301.00 159.20 L 301.30 155.70 L 301.10 152.70 L 287.80 148.40 L 288.60 149.50 L 288.70 150.00 L 288.50 150.20 L 283.00 150.30 L 280.20 150.00 L 278.10 149.30 L 276.30 148.30 L 272.50 145.00 L 271.50 147.30 L 269.70 148.30 L 268.20 148.30 L 263.90 147.40 L 262.20 147.60 L 261.90 148.40 L 262.10 151.90 L 264.00 172.90 L 263.40 172.60 L 263.00 171.80 L 261.70 165.60 L 260.10 164.40 L 258.80 164.10 L 257.50 164.30 L 256.30 165.10 L 255.40 167.20 L 255.20 169.30 L 255.40 171.40 L 256.30 174.30 L 257.50 176.00 L 258.80 177.00 L 261.20 177.90 Z" fill="#ff9330" fill-rule="nonzero" node-id="415" stroke="none" target-height="51.300003" target-width="46.09999" target-x="255.2" target-y="145"></path><path d="M 261.90 172.90 L 261.90 167.10 L 261.10 165.10 L 259.80 164.50 L 257.10 165.10 L 255.60 167.00 L 255.20 169.90 L 255.60 172.40 L 253.60 167.40 L 253.00 164.50 L 252.50 160.00 L 252.60 155.40 L 253.90 149.40 L 256.40 143.70 L 258.20 141.20 L 260.40 138.90 L 262.90 136.90 L 265.80 135.30 L 269.30 134.00 L 273.80 132.90 L 277.90 132.50 L 281.60 132.50 L 285.20 133.00 L 288.40 133.80 L 291.30 135.00 L 293.90 136.40 L 298.20 139.70 L 301.30 143.50 L 302.90 147.20 L 303.20 150.00 L 302.80 151.20 L 302.00 152.00 L 300.90 152.40 L 296.80 152.90 L 289.50 152.70 L 284.50 152.00 L 272.00 148.60 L 270.30 148.70 L 269.70 149.70 L 268.80 152.00 L 264.60 172.20 L 263.50 173.70 L 262.90 173.70 L 261.90 172.90 Z" fill="#2c2770" fill-rule="nonzero" node-id="417" stroke="none" target-height="41.199997" target-width="50.700012" target-x="252.5" target-y="132.5"></path><path d="M 279.60 181.00 L 286.40 184.30 L 284.90 185.70 L 283.70 186.00 L 282.00 185.80 L 280.30 184.50 L 279.60 182.30 L 279.60 181.00 Z" fill="#ffffff" fill-rule="nonzero" node-id="419" stroke="none" target-height="5" target-width="6.799988" target-x="279.6" target-y="181"></path><path d="M 294.10 160.80 L 299.40 160.90 L 300.20 161.70 L 300.30 162.30 L 300.20 162.80 L 299.40 163.60 L 293.50 163.60 L 292.70 162.80 L 292.70 161.70 L 293.50 160.90 L 294.10 160.80 Z" fill="#2c2770" fill-rule="nonzero" node-id="421" stroke="none" target-height="2.800003" target-width="7.5999756" target-x="292.7" target-y="160.8"></path><path d="M 274.80 160.80 L 280.20 160.90 L 281.00 161.70 L 281.10 162.30 L 281.00 162.80 L 280.20 163.60 L 274.30 163.60 L 273.50 162.80 L 273.50 161.70 L 274.30 160.90 L 274.80 160.80 Z" fill="#2c2770" fill-rule="nonzero" node-id="423" stroke="none" target-height="2.800003" target-width="7.600006" target-x="273.5" target-y="160.8"></path><path d="M 277.70 169.50 L 277.20 169.40 L 276.40 168.70 L 276.40 167.50 L 277.20 166.80 L 278.30 166.80 L 279.00 167.50 L 279.00 168.70 L 278.30 169.40 L 277.70 169.50 Z" fill="#000000" fill-rule="nonzero" node-id="425" stroke="none" target-height="2.699997" target-width="2.600006" target-x="276.4" target-y="166.8"></path><path d="M 288.80 162.70 L 288.80 180.00 L 284.40 180.00" fill="none" node-id="427" stroke="#000000" stroke-linecap="butt" stroke-width="1.053" target-height="17.300003" target-width="4.399994" target-x="284.4" target-y="162.7"></path><path d="M 293.90 169.50 L 293.30 169.40 L 292.50 168.70 L 292.50 167.50 L 293.30 166.80 L 294.40 166.80 L 295.20 167.50 L 295.20 168.70 L 294.40 169.40 L 293.90 169.50 Z" fill="#000000" fill-rule="nonzero" node-id="429" stroke="none" target-height="2.699997" target-width="2.7000122" target-x="292.5" target-y="166.8"></path><path d="M 286.10 167.70 L 285.90 169.40 L 285.30 170.80 L 284.30 172.10 L 283.00 173.10 L 281.50 173.70 L 279.80 174.00 L 278.10 173.70 L 276.60 173.10 L 275.40 172.10 L 274.40 170.80 L 273.80 169.40 L 273.50 167.70 L 274.00 165.70 L 275.20 164.60 L 277.10 164.10 L 279.80 164.00 L 282.60 164.10 L 284.40 164.60 L 285.70 165.70 L 286.10 167.70 Z" fill="none" node-id="431" stroke="#000000" stroke-linecap="butt" stroke-width="1.053" target-height="10" target-width="12.600006" target-x="273.5" target-y="164"></path><path d="M 289.80 165.70 L 287.90 164.90 L 285.70 165.70" fill="none" node-id="433" stroke="#000000" stroke-linecap="butt" stroke-width="1.053" target-height="0.80000305" target-width="4.0999756" target-x="285.7" target-y="164.9"></path><path d="M 301.90 167.70 L 301.70 169.40 L 301.10 170.80 L 300.10 172.10 L 298.80 173.10 L 297.30 173.70 L 295.60 174.00 L 293.90 173.70 L 292.40 173.10 L 291.20 172.10 L 290.20 170.80 L 289.50 169.40 L 289.30 167.70 L 289.80 165.70 L 291.00 164.60 L 292.90 164.10 L 295.60 164.00 L 298.40 164.10 L 300.20 164.60 L 301.50 165.70 L 301.90 167.70 Z" fill="none" node-id="435" stroke="#000000" stroke-linecap="butt" stroke-width="1.053" target-height="10" target-width="12.600006" target-x="289.3" target-y="164"></path><path d="M 273.50 166.10 L 259.80 164.00" fill="none" node-id="437" stroke="#000000" stroke-linecap="butt" stroke-width="1.053" target-height="2.100006" target-width="13.700012" target-x="259.8" target-y="164"></path><path d="M 367.50 266.50 L 313.70 274.00 L 312.70 274.40 L 312.10 275.30 L 297.40 314.10 L 297.30 315.20 L 297.70 316.10 L 298.50 316.80 L 299.60 316.90 L 352.80 309.80 L 353.80 309.40 L 354.40 308.50 L 370.70 270.10 L 370.90 269.40 L 370.50 268.00 L 368.90 266.80 L 367.50 266.50 Z" fill="#2c2770" fill-rule="nonzero" node-id="439" stroke="none" target-height="50.399994" target-width="73.600006" target-x="297.3" target-y="266.5"></path><path d="M 368.60 268.70 L 317.70 275.80 L 315.10 276.90 L 313.50 279.20 L 301.00 312.50 L 301.30 314.80 L 302.20 316.40 L 303.50 317.50 L 305.70 318.30 L 353.00 312.10 L 355.60 311.10 L 357.20 308.90 L 372.00 273.00 L 372.20 271.90 L 371.50 269.90 L 369.80 268.80 L 368.60 268.70 Z" fill="#6b8cff" fill-rule="nonzero" node-id="441" stroke="none" target-height="49.599976" target-width="71.20001" target-x="301" target-y="268.7"></path><path d="M 339.70 297.60 L 340.80 296.60 L 341.90 294.30 L 341.70 291.80 L 341.10 290.70 L 340.20 289.80 L 337.80 288.90 L 335.30 289.30 L 334.00 290.00 L 333.00 291.10 L 331.90 293.40 L 332.10 295.90 L 332.70 297.00 L 333.60 297.90 L 335.90 298.70 L 338.50 298.30 L 339.70 297.60 Z" fill="#2c2770" fill-rule="nonzero" node-id="443" stroke="none" target-height="9.800018" target-width="10" target-x="331.9" target-y="288.9"></path><path d="M 283.40 298.00 L 226.60 289.10 L 200.80 283.40 L 198.20 297.10 L 197.90 300.30 L 198.20 303.40 L 199.10 306.30 L 200.60 308.90 L 202.50 311.20 L 204.80 313.10 L 207.40 314.60 L 210.40 315.50 L 213.60 315.90 L 279.20 316.00 L 286.20 320.00 L 295.10 323.40 L 310.10 326.60 L 311.20 326.60 L 312.10 325.90 L 312.50 324.90 L 312.40 324.00 L 311.90 323.30 L 311.00 322.80 L 300.90 320.30 L 316.60 320.30 L 317.40 320.10 L 318.00 319.50 L 318.00 317.90 L 316.80 317.10 L 304.20 315.90 L 322.70 314.20 L 323.70 313.90 L 324.40 313.10 L 324.50 312.10 L 323.60 310.60 L 322.70 310.40 L 305.90 309.40 L 322.30 306.70 L 323.30 305.60 L 323.60 304.80 L 323.50 303.80 L 323.00 302.90 L 322.20 302.30 L 321.20 302.10 L 300.90 301.50 L 302.40 300.60 L 305.60 292.10 L 294.70 294.10 L 283.40 298.00 Z" fill="#ff9330" fill-rule="nonzero" node-id="445" stroke="none" target-height="43.200012" target-width="126.600006" target-x="197.9" target-y="283.4"></path><path d="M 724.20 119.80 L 566.30 119.80 L 564.30 120.10 L 562.50 120.80 L 561.00 122.00 L 559.90 123.40 L 559.20 125.20 L 558.90 127.20 L 558.90 206.00 L 559.20 208.00 L 559.90 209.80 L 561.00 211.20 L 562.50 212.40 L 564.30 213.10 L 566.30 213.40 L 724.20 213.40 L 726.20 213.10 L 727.90 212.40 L 729.40 211.20 L 730.60 209.80 L 731.30 208.00 L 731.60 206.00 L 731.60 127.20 L 731.30 125.20 L 730.60 123.40 L 729.40 122.00 L 727.90 120.80 L 726.20 120.10 L 724.20 119.80 Z" fill="#ffffff" fill-rule="nonzero" node-id="447" stroke="#e5e5e5" stroke-linecap="butt" stroke-width="2.106" target-height="93.59999" target-width="172.69995" target-x="558.9" target-y="119.8"></path><path d="M 608.40 161.90 L 635.80 161.90 L 635.30 158.10 L 634.40 154.50 L 633.10 151.10 L 631.50 148.00 L 629.50 145.00 L 627.20 142.30 L 624.60 140.00 L 621.80 137.90 L 618.70 136.20 L 615.50 134.90 L 612.00 134.00 L 608.40 133.50 L 608.40 161.90 Z" fill="#1be3b3" fill-rule="nonzero" node-id="449" stroke="none" target-height="28.399994" target-width="27.399963" target-x="608.4" target-y="133.5"></path><path d="M 633.10 187.10 L 637.00 181.90 L 638.60 179.00 L 640.60 172.60 L 641.00 169.20 L 614.70 169.20 L 633.10 187.10 Z" fill="#ffae64" fill-rule="nonzero" node-id="451" stroke="none" target-height="17.90001" target-width="26.299988" target-x="614.7" target-y="169.2"></path><path d="M 603.90 166.00 L 603.90 133.50 L 600.00 134.00 L 596.40 135.00 L 592.90 136.40 L 589.60 138.30 L 586.60 140.50 L 583.90 143.00 L 581.60 145.90 L 579.60 149.10 L 577.90 152.50 L 576.70 156.10 L 576.00 159.90 L 575.70 163.90 L 576.00 168.10 L 576.80 172.10 L 578.10 175.80 L 579.90 179.40 L 582.00 182.60 L 584.60 185.50 L 587.50 188.10 L 590.70 190.30 L 594.20 192.10 L 597.90 193.40 L 601.90 194.20 L 606.00 194.50 L 609.60 194.30 L 613.10 193.60 L 616.40 192.60 L 619.60 191.20 L 625.20 187.50 L 603.90 166.00 Z" fill="#ff8282" fill-rule="nonzero" node-id="453" stroke="none" target-height="61" target-width="49.5" target-x="575.7" target-y="133.5"></path><path d="M 702.10 174.50 L 655.80 174.50 L 655.80 182.90 L 702.10 182.90 L 702.10 174.50 Z" fill="#a3b7ff" fill-rule="nonzero" node-id="455" stroke="none" target-height="8.399994" target-width="46.299988" target-x="655.8" target-y="174.5"></path><path d="M 689.50 159.80 L 654.70 159.80 L 654.70 168.20 L 689.50 168.20 L 689.50 159.80 Z" fill="#a3b7ff" fill-rule="nonzero" node-id="457" stroke="none" target-height="8.399994" target-width="34.799988" target-x="654.7" target-y="159.8"></path><path d="M 721.10 144.00 L 655.80 144.00 L 655.80 152.40 L 721.10 152.40 L 721.10 144.00 Z" fill="#a3b7ff" fill-rule="nonzero" node-id="459" stroke="none" target-height="8.399994" target-width="65.29999" target-x="655.8" target-y="144"></path><path d="M 856.90 524.70 L 841.10 524.70 L 841.10 635.20 L 856.90 635.20 L 856.90 524.70 Z" fill="#ccd9ff" fill-rule="nonzero" node-id="461" stroke="none" target-height="110.5" target-width="15.800049" target-x="841.1" target-y="524.7"></path><path d="M 830.60 498.40 L 868.50 498.40 L 864.30 535.30 L 834.80 535.30 L 830.60 498.40 Z" fill="#a3baff" fill-rule="nonzero" node-id="463" stroke="none" target-height="36.899994" target-width="37.900024" target-x="830.6" target-y="498.4"></path><g node-id="580"><path d="M 874.80 499.50 L 822.10 496.90 L 827.40 507.90 L 870.60 517.40 L 874.80 499.50 Z" fill="#000000" fill-rule="nonzero" group-id="9" node-id="467" stroke="none" target-height="20.50003" target-width="52.700012" target-x="822.1" target-y="496.9"></path></g><path d="M 898.00 479.50 L 799.00 479.50 L 799.00 503.70 L 898.00 503.70 L 898.00 479.50 Z" fill="#ccd9ff" fill-rule="nonzero" node-id="470" stroke="none" target-height="24.200012" target-width="99" target-x="799" target-y="479.5"></path><path d="M 906.40 632.00 L 790.60 632.00 L 790.60 641.50 L 906.40 641.50 L 906.40 632.00 Z" fill="#ccd9ff" fill-rule="nonzero" node-id="472" stroke="none" target-height="9.5" target-width="115.80005" target-x="790.6" target-y="632"></path><path d="M 906.40 638.30 L 790.60 638.30 L 790.60 641.50 L 906.40 641.50 L 906.40 638.30 Z" fill="#2c2770" fill-rule="nonzero" node-id="474" stroke="none" target-height="3.2000122" target-width="115.80005" target-x="790.6" target-y="638.3"></path><path d="M 621.20 605.70 L 637.20 602.50 L 640.50 601.20 L 644.40 598.10 L 646.50 595.70 L 650.00 590.80 L 653.20 585.20 L 669.10 593.10 L 659.70 609.80 L 657.20 620.00 L 621.50 608.10 L 621.20 605.70 Z" fill="#ffae64" fill-rule="nonzero" node-id="476" stroke="none" target-height="34.799988" target-width="47.899963" target-x="621.2" target-y="585.2"></path><path d="M 624.10 608.20 L 656.80 616.90 L 657.20 620.70 L 656.20 624.30 L 653.90 627.20 L 648.30 632.00 L 635.70 626.00 L 636.50 622.60 L 629.00 621.40 L 623.00 619.70 L 610.50 612.90 L 609.00 611.40 L 608.40 609.30 L 608.70 607.60 L 609.60 606.30 L 610.90 605.30 L 612.50 605.00 L 629.00 604.60 L 623.70 605.40 L 622.90 606.40 L 623.00 607.10 L 623.40 607.80 L 624.10 608.20 Z" fill="#2c2770" fill-rule="nonzero" node-id="478" stroke="none" target-height="27.400024" target-width="48.799988" target-x="608.4" target-y="604.6"></path><path d="M 901.70 412.00 L 900.00 406.90 L 854.20 406.90 L 846.20 429.40 L 754.30 456.50 L 743.30 461.20 L 733.10 467.20 L 723.70 474.50 L 719.30 478.60 L 711.50 487.60 L 642.00 591.50 L 664.70 604.10 L 764.70 497.90 L 854.50 486.30 L 859.40 485.50 L 864.10 484.20 L 868.70 482.60 L 873.20 480.60 L 877.40 478.20 L 881.40 475.50 L 885.20 472.40 L 888.80 468.90 L 892.20 464.90 L 895.20 460.80 L 897.80 456.40 L 900.00 451.80 L 901.70 447.10 L 903.00 442.20 L 903.90 437.30 L 904.40 432.20 L 904.40 427.10 L 904.00 422.10 L 903.10 417.00 L 901.70 412.00 Z" fill="#2c2770" fill-rule="nonzero" node-id="480" stroke="none" target-height="197.19998" target-width="262.40002" target-x="642" target-y="406.9"></path><path d="M 893.70 406.90 L 893.50 435.10 L 892.90 439.50 L 891.90 443.80 L 890.50 447.90 L 886.70 455.60 L 881.60 462.50 L 875.40 468.40 L 868.20 473.20 L 864.30 475.10 L 860.20 476.60 L 855.90 477.70 L 851.30 478.50 L 755.80 490.60 L 662.00 603.10" fill="none" node-id="482" stroke="#ffffff" stroke-linecap="butt" stroke-width="1.053" target-height="196.19998" target-width="231.70001" target-x="662" target-y="406.9"></path><path d="M 744.70 627.90 L 754.00 614.40 L 755.50 611.20 L 756.10 606.20 L 755.90 603.10 L 755.00 597.10 L 753.40 590.90 L 770.30 585.50 L 775.20 604.00 L 780.50 613.00 L 746.60 629.40 L 744.70 627.90 Z" fill="#ffae64" fill-rule="nonzero" node-id="484" stroke="none" target-height="43.900024" target-width="35.799988" target-x="744.7" target-y="585.5"></path><path d="M 748.50 627.70 L 778.10 611.20 L 781.00 613.60 L 782.80 616.80 L 783.20 620.60 L 782.50 627.90 L 769.20 632.40 L 767.50 629.40 L 761.30 633.70 L 755.80 636.70 L 742.10 640.50 L 739.90 640.50 L 738.00 639.40 L 737.10 638.00 L 736.80 636.40 L 737.10 634.80 L 738.00 633.40 L 749.50 621.70 L 746.30 625.90 L 746.50 627.20 L 747.00 627.60 L 747.80 627.80 L 748.50 627.70 Z" fill="#2c2770" fill-rule="nonzero" node-id="486" stroke="none" target-height="29.299988" target-width="46.400024" target-x="736.8" target-y="611.2"></path><path d="M 739.10 440.60 L 820.50 408.00 L 855.80 408.00 L 845.80 436.40 L 763.10 454.30 L 776.30 596.80 L 750.50 596.80 L 718.80 481.50 L 717.90 477.20 L 717.60 473.00 L 717.80 468.70 L 718.50 464.50 L 719.70 460.50 L 721.50 456.50 L 723.60 453.00 L 726.00 449.90 L 728.80 447.00 L 732.00 444.50 L 735.40 442.40 L 739.10 440.60 Z" fill="#2c2770" fill-rule="nonzero" node-id="488" stroke="none" target-height="188.79999" target-width="138.20001" target-x="717.6" target-y="408"></path><path d="M 765.80 455.30 L 753.70 462.20 L 769.50 598.40" fill="none" node-id="490" stroke="#ffffff" stroke-linecap="butt" stroke-width="1.053" target-height="143.10004" target-width="15.799988" target-x="753.7" target-y="455.3"></path><path d="M 850.50 419.00 L 854.20 408.00 L 841.60 408.00 L 765.80 455.30 L 850.50 419.00 Z" fill="#000000" fill-rule="nonzero" node-id="492" stroke="#000000" stroke-linecap="butt" stroke-width="1.053" target-height="47.299988" target-width="88.400024" target-x="765.8" target-y="408"></path><path d="M 943.90 346.60 L 921.90 336.10 L 904.50 352.60 L 924.90 363.70 L 929.30 365.70 L 933.80 367.20 L 938.40 368.20 L 943.00 368.70 L 947.70 368.70 L 952.40 368.10 L 957.00 367.10 L 961.40 365.50 L 965.80 363.40 L 1011.00 338.20 L 1020.50 338.80 L 1028.40 338.80 L 1030.50 338.60 L 1032.30 337.90 L 1034.10 336.90 L 1035.50 335.50 L 1036.80 332.90 L 1036.80 330.00 L 1034.70 320.30 L 1049.70 316.20 L 1050.70 315.70 L 1051.30 314.90 L 1051.50 313.90 L 1050.90 312.20 L 1049.50 311.40 L 1048.70 311.40 L 1030.30 314.00 L 1028.50 311.10 L 1026.80 310.30 L 1019.70 311.50 L 1017.80 312.10 L 1016.20 313.00 L 1014.70 314.40 L 1008.10 322.30 L 943.90 346.60 Z" fill="#ffae64" fill-rule="nonzero" node-id="494" stroke="none" target-height="58.400024" target-width="147" target-x="904.5" target-y="310.3"></path><path d="M 1036.10 327.00 L 1023.80 329.00 L 1022.50 328.20 L 1022.10 327.40 L 1022.30 325.90 L 1023.40 324.80 L 1026.50 323.60" fill="none" node-id="496" stroke="#000000" stroke-linecap="butt" stroke-width="1.053" target-height="5.399994" target-width="14" target-x="1022.1" target-y="323.6"></path><path d="M 1037.20 332.30 L 1024.70 333.10 L 1023.50 332.10 L 1023.30 330.60 L 1024.20 329.30 L 1025.50 328.90" fill="none" node-id="498" stroke="#000000" stroke-linecap="butt" stroke-width="1.053" target-height="4.200012" target-width="13.899963" target-x="1023.3" target-y="328.9"></path><path d="M 1031.80 337.60 L 1022.70 337.90 L 1021.10 337.40 L 1020.40 336.00 L 1020.70 334.40 L 1022.00 333.50 L 1024.50 332.80" fill="none" node-id="500" stroke="#000000" stroke-linecap="butt" stroke-width="1.053" target-height="5.100006" target-width="11.400024" target-x="1020.4" target-y="332.8"></path><path d="M 1030.80 316.00 L 1033.30 325.60 L 1033.30 326.20 L 1032.80 327.20 L 1031.00 327.70 L 1029.70 327.40 L 1028.60 326.80 L 1023.10 318.80 L 1022.20 321.70 L 1021.10 323.60 L 1017.60 327.80 L 1015.40 329.90" fill="none" node-id="502" stroke="#000000" stroke-linecap="butt" stroke-width="1.053" target-height="13.899994" target-width="17.900024" target-x="1015.4" target-y="316"></path><path d="M 771.60 297.80 L 794.90 304.80 L 796.80 328.60 L 774.20 323.20 L 769.50 321.80 L 765.20 319.90 L 761.10 317.60 L 757.30 314.90 L 753.90 311.70 L 750.80 308.20 L 748.10 304.30 L 745.90 300.20 L 744.10 295.70 L 727.50 246.80 L 720.10 240.90 L 714.10 235.60 L 712.80 234.10 L 711.80 232.40 L 711.30 230.50 L 711.10 228.40 L 711.90 225.70 L 713.80 223.50 L 722.00 217.70 L 713.60 204.70 L 713.20 203.70 L 713.30 202.70 L 713.80 201.80 L 715.40 200.90 L 716.90 201.30 L 717.50 201.80 L 729.40 216.00 L 732.70 215.00 L 734.60 215.60 L 739.10 221.20 L 740.00 222.90 L 740.60 224.70 L 740.70 226.70 L 740.30 237.00 L 771.60 297.80 Z" fill="#ffae64" fill-rule="nonzero" node-id="504" stroke="none" target-height="127.70001" target-width="85.70001" target-x="711.1" target-y="200.9"></path><path d="M 716.40 221.80 L 724.20 231.50 L 725.70 231.70 L 726.50 231.40 L 727.40 230.20 L 727.20 228.60 L 725.80 225.70" fill="none" node-id="506" stroke="#000000" stroke-linecap="butt" stroke-width="1.053" target-height="9.899994" target-width="11" target-x="716.4" target-y="221.8"></path><path d="M 712.00 225.00 L 720.80 233.90 L 722.30 234.00 L 723.50 233.00 L 723.70 231.40 L 723.00 230.30" fill="none" node-id="508" stroke="#000000" stroke-linecap="butt" stroke-width="1.053" target-height="9" target-width="11.700012" target-x="712" target-y="225"></path><path d="M 712.50 232.50 L 719.00 238.80 L 720.50 239.40 L 722.00 238.90 L 722.80 237.60 L 722.50 236.00 L 721.10 233.80" fill="none" node-id="510" stroke="#000000" stroke-linecap="butt" stroke-width="1.053" target-height="6.899994" target-width="10.299988" target-x="712.5" target-y="232.5"></path><path d="M 727.80 217.10 L 719.40 222.60 L 719.00 223.00 L 718.70 224.10 L 719.80 225.70 L 720.80 226.40 L 722.10 226.70 L 731.50 224.40 L 730.30 227.10 L 729.80 229.20 L 729.60 234.70 L 729.80 237.70" fill="none" node-id="512" stroke="#000000" stroke-linecap="butt" stroke-width="1.053" target-height="20.59999" target-width="12.799988" target-x="718.7" target-y="217.1"></path><path d="M 899.20 311.10 L 879.40 304.10 L 858.20 303.50 L 838.50 302.30 L 799.80 301.20 L 783.70 299.70 L 779.30 326.30 L 789.20 330.60 L 795.80 332.80 L 810.20 336.50 L 819.00 338.20 L 819.80 349.60 L 821.80 361.70 L 822.00 364.80 L 826.40 384.10 L 815.70 409.00 L 903.00 409.00 L 894.00 381.70 L 899.30 351.50 L 917.70 363.30 L 935.40 341.10 L 908.60 316.70 L 905.70 314.40 L 902.60 312.60 L 899.20 311.10 Z" fill="#6b8cff" fill-rule="nonzero" node-id="514" stroke="none" target-height="109.29999" target-width="156.10004" target-x="779.3" target-y="299.7"></path><g node-id="581"><path d="M 810.10 286.20 L 810.50 288.90 L 810.50 291.50 L 810.00 294.00 L 809.10 296.60 L 807.40 299.70 L 805.10 303.00 L 802.10 306.20 L 797.00 310.80 L 791.00 315.60 L 771.10 329.60 L 760.40 337.70 L 753.20 344.50 L 750.10 348.20 L 747.60 351.80 L 745.70 355.50 L 744.70 358.50 L 744.10 361.50 L 743.90 364.60 L 744.10 367.80 L 744.80 370.50 L 746.00 373.60 L 747.80 377.00 L 750.30 380.80 L 754.00 385.50 L 758.70 390.60 L 764.30 396.10 L 776.90 406.70 L 791.90 417.60 L 808.50 428.20 L 826.10 438.00 L 844.40 446.80 L 862.60 454.10 L 871.70 457.10 L 880.50 459.60 L 888.80 461.50 L 895.30 462.60 L 906.90 463.60 L 912.30 463.50 L 917.70 463.00 L 922.60 462.10 L 927.00 460.70 L 931.10 458.90 L 937.00 455.50 L 942.20 452.10 L 946.70 448.70 L 950.60 445.20 L 954.20 441.30 L 957.10 437.50 L 959.20 433.80 L 960.80 430.10 L 961.60 427.00 L 962.00 424.00 L 961.90 421.20 L 961.40 418.30 L 960.50 415.50 L 959.20 412.90 L 957.40 410.40 L 955.20 408.00 L 952.30 405.50 L 948.70 403.10 L 944.30 400.80 L 938.80 398.60 L 932.20 396.60 L 924.30 394.80 L 916.70 393.60 L 908.00 392.70 L 897.80 392.30 L 874.70 392.30 L 864.30 391.90 L 855.00 391.10 L 846.60 390.00 L 838.00 388.40 L 830.30 386.70 L 823.60 384.70 L 817.80 382.50 L 811.90 379.80 L 806.90 377.10 L 802.60 374.20 L 799.10 371.40 L 795.80 368.00 L 793.10 364.80 L 791.20 361.60 L 789.70 358.30 L 788.80 354.90 L 788.30 351.60 L 788.40 348.30 L 789.00 345.10 L 790.10 342.00 L 791.60 339.00 L 793.60 336.10 L 796.10 333.20 L 798.30 331.50 L 800.70 330.20 L 803.20 329.40 L 806.00 329.00 L 809.90 329.00 L 814.00 329.60 L 818.60 330.70 L 825.50 333.10 L 840.00 340.00 L 860.60 351.00 L 866.90 353.90 L 872.00 355.80 L 875.30 356.50 L 877.90 356.60 L 879.90 356.20 L 881.20 355.40 L 882.20 354.20 L 882.90 352.50 L 883.40 350.00 L 883.30 347.60 L 882.80 345.20 L 881.90 343.00 L 880.60 340.80 L 878.40 338.10 L 875.60 335.50 L 872.30 332.90 L 866.80 329.40 L 837.50 314.20 L 834.40 312.20 L 830.40 308.40 L 829.40 306.90 L 828.90 305.30 L 828.90 303.80 L 829.30 302.20 L 831.40 299.20 L 836.60 295.30 L 842.30 292.80 L 847.20 292.20 L 850.40 292.60 L 853.50 293.60 L 856.50 295.20 L 862.10 299.60 L 865.00 302.50 L 877.70 317.20 L 885.30 325.20 L 892.00 330.60 L 895.70 332.80 L 899.50 334.40 L 903.60 335.60 L 909.50 336.60 L 914.70 337.10 L 919.30 337.10 L 923.80 336.70 L 927.70 336.00 L 934.30 333.80 L 939.20 331.10 L 942.00 328.90 L 943.60 327.00 L 953.60 332.40 L 958.70 335.50 L 963.50 338.90 L 968.00 342.60 L 971.70 346.30 L 975.60 351.40 L 976.80 353.90 L 977.50 356.50 L 977.50 358.90 L 977.00 361.40 L 976.20 363.00 L 973.30 366.40 L 971.00 368.20 L 967.70 370.10 L 963.10 372.10 L 957.10 374.00 L 949.80 375.70 L 942.00 377.00 L 933.50 377.90 L 925.00 378.30 L 906.90 378.10 L 893.10 377.20 L 879.20 375.70 L 865.50 373.70 L 840.00 369.00 L 828.80 366.50 L 810.10 361.50" fill="none" group-id="10" node-id="518" stroke="#a3b7ff" stroke-linecap="butt" stroke-width="7.371" target-height="177.4" target-width="233.59998" target-x="743.9" target-y="286.2"></path></g><path d="M 833.90 410.50 L 840.50 301.80 L 773.40 295.40 L 742.70 236.00 L 724.30 246.50 L 740.30 297.80 L 742.10 302.40 L 744.30 306.80 L 747.00 310.90 L 750.10 314.60 L 753.50 317.90 L 757.40 320.90 L 761.50 323.50 L 766.00 325.50 L 770.70 327.20 L 813.50 339.10 L 820.90 382.20 L 814.40 410.40 L 833.90 410.50 Z" fill="#ff6767" fill-rule="nonzero" node-id="521" stroke="none" target-height="174.5" target-width="116.20001" target-x="724.3" target-y="236"></path><path d="M 884.80 440.10 L 888.50 305.40 L 904.00 310.50 L 908.50 312.70 L 912.80 315.50 L 916.80 318.70 L 945.00 344.40 L 1002.60 321.70 L 1008.90 341.20 L 968.20 366.40 L 964.00 368.70 L 959.80 370.60 L 955.40 372.10 L 951.00 373.10 L 946.40 373.70 L 941.90 373.90 L 937.30 373.70 L 932.80 373.10 L 928.30 372.00 L 924.00 370.60 L 919.70 368.70 L 902.20 358.00 L 898.00 382.70 L 909.10 445.30 L 884.80 440.10 Z" fill="#ff6767" fill-rule="nonzero" node-id="523" stroke="none" target-height="139.9" target-width="124.10004" target-x="884.8" target-y="305.4"></path><path d="M 832.00 301.20 L 825.10 323.30 L 838.90 322.30" fill="none" node-id="525" stroke="#000000" stroke-linecap="butt" stroke-width="1.053" target-height="22.099976" target-width="13.800049" target-x="825.1" target-y="301.2"></path><path d="M 895.90 307.50 L 902.80 324.40 L 888.00 322.30" fill="none" node-id="527" stroke="#000000" stroke-linecap="butt" stroke-width="1.053" target-height="16.899994" target-width="14.799988" target-x="888" target-y="307.5"></path><path d="M 834.10 243.20 L 834.60 240.90 L 836.30 237.50 L 838.20 235.60 L 840.30 234.30 L 844.90 232.90 L 849.00 232.90 L 854.90 228.80 L 859.90 227.10 L 863.00 226.70 L 866.80 227.00 L 870.70 227.70 L 874.60 228.90 L 879.30 231.30 L 883.20 234.70 L 884.60 236.70 L 885.70 239.00 L 886.30 241.50 L 886.50 244.30 L 886.00 247.60 L 886.00 254.30 L 884.90 260.40 L 883.80 263.60 L 882.20 266.60 L 879.30 270.00 L 877.30 271.30 L 875.20 272.30 L 872.60 273.00 L 869.50 273.20 L 868.40 277.90 L 863.90 288.00 L 860.20 294.10 L 858.60 295.90 L 857.40 296.70 L 856.50 296.90 L 855.80 296.60 L 855.30 295.80 L 854.90 294.20 L 854.80 280.90 L 850.10 278.00 L 845.20 273.20 L 843.50 272.30 L 841.80 271.00 L 840.10 269.10 L 837.50 264.50 L 835.00 257.20 L 834.20 252.50 L 833.90 247.70 L 834.10 243.20 Z" fill="#2c2770" fill-rule="nonzero" node-id="529" stroke="none" target-height="70.2" target-width="52.599976" target-x="833.9" target-y="226.7"></path><path d="M 846.30 234.40 L 843.10 234.10 L 840.20 233.40 L 837.50 232.10 L 835.00 230.30 L 832.90 228.30 L 831.20 225.80 L 829.90 223.20 L 829.10 220.30 L 828.80 217.10 L 829.10 213.90 L 829.90 211.00 L 831.20 208.30 L 832.90 205.90 L 835.00 203.80 L 837.50 202.10 L 840.20 200.80 L 843.10 200.00 L 846.30 199.70 L 849.40 200.00 L 852.40 200.80 L 855.10 202.10 L 857.50 203.80 L 859.60 205.90 L 861.30 208.30 L 862.60 211.00 L 863.40 213.90 L 863.70 217.10 L 863.40 220.30 L 862.60 223.20 L 861.30 225.80 L 859.60 228.30 L 857.50 230.30 L 855.10 232.10 L 852.40 233.40 L 849.40 234.10 L 846.30 234.40 Z" fill="#2c2770" fill-rule="nonzero" node-id="531" stroke="none" target-height="34.699997" target-width="34.900024" target-x="828.8" target-y="199.7"></path><path d="M 841.50 253.50 L 841.50 258.00 L 839.10 257.70 L 836.70 258.50 L 835.80 259.80 L 835.90 263.00 L 836.50 264.70 L 837.50 266.10 L 838.70 266.90 L 840.50 267.20 L 841.50 266.80 L 842.70 272.60 L 844.00 275.80 L 845.90 279.10 L 847.60 281.10 L 849.50 282.80 L 851.80 284.30 L 851.00 290.30 L 849.00 296.30 L 847.60 298.50 L 846.00 300.30 L 842.70 302.60 L 840.10 303.70 L 844.70 307.90 L 847.90 310.10 L 851.90 312.10 L 854.70 313.20 L 860.80 314.10 L 864.00 313.80 L 866.80 313.20 L 869.50 312.10 L 873.20 310.10 L 876.10 307.90 L 880.10 303.70 L 876.40 301.90 L 874.00 300.20 L 871.20 297.80 L 870.00 296.20 L 868.50 291.50 L 868.00 283.50 L 869.90 282.00 L 872.90 278.30 L 875.70 272.20 L 877.10 266.80 L 879.50 266.90 L 880.80 266.60 L 882.50 265.00 L 883.10 262.40 L 882.50 259.80 L 880.60 258.20 L 879.30 257.80 L 877.10 258.00 L 877.10 253.50 L 872.80 253.70 L 869.90 253.30 L 866.50 252.50 L 863.00 251.10 L 859.30 249.10 L 853.90 245.20 L 851.20 242.80 L 850.40 241.70 L 849.70 246.40 L 848.30 249.50 L 847.50 250.60 L 844.80 252.50 L 841.50 253.50 Z" fill="#ffae64" fill-rule="nonzero" node-id="533" stroke="none" target-height="72.40001" target-width="47.299988" target-x="835.8" target-y="241.7"></path><path d="M 854.00 273.70 L 860.70 277.10 L 859.20 278.50 L 858.00 278.80 L 856.40 278.50 L 854.70 277.30 L 853.90 275.00 L 854.00 273.70 Z" fill="#ffffff" fill-rule="nonzero" node-id="535" stroke="none" target-height="5.0999756" target-width="6.799988" target-x="853.9" target-y="273.7"></path><path d="M 868.40 253.60 L 873.80 253.70 L 874.60 254.50 L 874.60 255.60 L 873.80 256.40 L 873.20 256.50 L 867.80 256.40 L 867.10 255.60 L 867.10 254.50 L 867.80 253.70 L 868.40 253.60 Z" fill="#2c2770" fill-rule="nonzero" node-id="537" stroke="none" target-height="2.899994" target-width="7.5" target-x="867.1" target-y="253.6"></path><path d="M 849.10 253.60 L 854.50 253.70 L 855.30 254.50 L 855.30 255.60 L 854.50 256.40 L 854.00 256.50 L 848.60 256.40 L 847.80 255.60 L 847.80 254.50 L 848.60 253.70 L 849.10 253.60 Z" fill="#2c2770" fill-rule="nonzero" node-id="539" stroke="none" target-height="2.899994" target-width="7.5" target-x="847.8" target-y="253.6"></path><path d="M 852.00 261.30 L 851.00 260.80 L 850.60 259.80 L 851.00 258.80 L 852.00 258.40 L 853.10 258.80 L 853.50 259.80 L 853.10 260.80 L 852.00 261.30 Z" fill="#000000" fill-rule="nonzero" node-id="541" stroke="none" target-height="2.899994" target-width="2.9000244" target-x="850.6" target-y="258.4"></path><path d="M 863.10 255.50 L 863.10 272.80 L 858.80 272.80" fill="none" node-id="543" stroke="#000000" stroke-linecap="butt" stroke-width="1.053" target-height="17.299988" target-width="4.299988" target-x="858.8" target-y="255.5"></path><path d="M 870.30 261.30 L 869.80 261.20 L 869.00 260.40 L 869.00 259.30 L 869.80 258.50 L 870.90 258.50 L 871.70 259.30 L 871.70 260.40 L 870.90 261.20 L 870.30 261.30 Z" fill="#000000" fill-rule="nonzero" node-id="545" stroke="none" target-height="2.7999878" target-width="2.7000122" target-x="869" target-y="258.5"></path><path d="M 839.00 260.80 L 838.80 262.20 L 839.50 263.70 L 841.90 264.60" fill="none" node-id="547" stroke="#000000" stroke-linecap="butt" stroke-width="1.053" target-height="3.8000183" target-width="3.1000366" target-x="838.8" target-y="260.8"></path><path d="M 880.20 260.80 L 880.50 262.20 L 879.70 263.70 L 878.90 264.30 L 877.30 264.60" fill="none" node-id="549" stroke="#000000" stroke-linecap="butt" stroke-width="1.053" target-height="3.8000183" target-width="3.2000122" target-x="877.3" target-y="260.8"></path><g node-id="582"><path d="M 869.40 282.90 L 863.80 285.20 L 859.70 285.70 L 854.20 285.00 L 850.60 283.80 L 869.90 292.90 L 869.40 282.90 Z" fill="#ff8282" fill-rule="nonzero" group-id="11" node-id="553" stroke="none" target-height="10" target-width="19.300049" target-x="850.6" target-y="282.9"></path></g><path d="M 211.00 351.10 L 214.70 348.10 L 216.90 347.00 L 220.50 345.90 L 224.50 345.30 L 228.60 345.20 L 236.50 346.10 L 240.00 346.90 L 245.60 348.90 L 240.10 357.40 L 237.70 360.30 L 232.50 365.10 L 226.60 368.60 L 217.10 372.30 L 214.30 373.80 L 211.80 375.80 L 208.90 379.50 L 207.50 382.40 L 205.30 389.20 L 203.80 396.60 L 202.90 398.30 L 202.00 399.60 L 200.10 401.10 L 190.90 404.50 L 188.80 405.90 L 187.60 407.10 L 185.70 411.20 L 185.10 413.70 L 184.80 417.00 L 184.90 425.90 L 184.50 429.70 L 182.80 435.90 L 180.20 440.80 L 173.10 449.50 L 169.90 454.20 L 169.10 456.30 L 167.80 462.80 L 165.60 470.20 L 164.00 473.70 L 162.10 476.70 L 159.90 479.40 L 157.40 481.80 L 154.40 483.70 L 151.00 485.20 L 147.80 485.90 L 144.90 486.10 L 142.20 485.70 L 139.60 484.80 L 137.30 483.60 L 135.30 482.00 L 133.50 480.10 L 132.10 478.10 L 131.10 475.80 L 130.50 473.50 L 130.40 471.10 L 130.80 468.80 L 131.60 466.50 L 133.10 464.40 L 136.90 460.80 L 138.00 459.20 L 138.70 456.00 L 138.20 452.30 L 135.40 443.80 L 134.90 440.90 L 134.90 439.00 L 135.30 437.10 L 136.10 435.20 L 137.30 433.40 L 139.20 431.60 L 144.90 427.70 L 146.90 425.60 L 148.40 423.40 L 150.20 418.30 L 150.60 415.70 L 151.30 403.30 L 151.90 399.50 L 152.60 397.10 L 153.80 394.90 L 155.30 392.80 L 157.30 391.10 L 160.00 389.60 L 168.10 386.80 L 171.40 385.30 L 173.90 383.70 L 176.20 381.80 L 179.00 378.10 L 180.30 375.10 L 183.20 364.50 L 185.40 361.30 L 186.90 360.10 L 190.00 358.70 L 192.30 358.20 L 199.90 357.60 L 202.50 357.10 L 207.10 354.80 L 211.00 351.10 Z" fill="#6b8cff" fill-rule="nonzero" node-id="556" stroke="none" target-height="140.9" target-width="115.20001" target-x="130.4" target-y="345.2"></path><path d="M 129.70 279.60 L 130.80 277.10 L 132.10 275.10 L 133.60 273.40 L 137.60 271.00 L 139.80 270.20 L 143.40 269.60 L 147.10 269.60 L 150.80 270.00 L 154.20 270.90 L 157.40 272.20 L 160.00 273.80 L 157.10 276.10 L 148.30 282.20 L 145.60 284.50 L 143.20 287.30 L 141.90 289.30 L 139.90 294.80 L 139.40 297.90 L 139.20 306.20 L 139.70 310.70 L 142.00 322.80 L 142.50 325.60 L 142.50 327.80 L 142.10 329.50 L 141.00 331.90 L 134.10 339.40 L 132.90 341.80 L 132.20 345.80 L 133.10 351.50 L 134.30 355.10 L 138.10 363.60 L 139.20 367.10 L 140.20 373.40 L 139.80 379.00 L 138.90 382.80 L 133.70 396.10 L 132.70 401.30 L 133.10 405.80 L 135.50 415.90 L 136.20 420.80 L 136.10 428.40 L 134.80 433.90 L 133.60 436.40 L 131.90 438.80 L 129.70 441.00 L 126.80 443.20 L 124.00 444.60 L 121.30 445.30 L 118.60 445.50 L 116.00 445.20 L 113.70 444.30 L 111.50 443.00 L 109.60 441.40 L 108.00 439.30 L 106.70 437.00 L 105.90 434.50 L 105.60 431.80 L 105.70 429.00 L 106.40 426.20 L 108.90 420.70 L 109.40 418.60 L 108.90 414.90 L 107.20 411.50 L 101.50 404.20 L 100.00 401.50 L 99.40 399.60 L 99.10 397.50 L 99.30 395.20 L 99.90 392.90 L 101.10 390.10 L 105.00 384.10 L 106.20 381.50 L 107.10 376.50 L 106.60 371.80 L 105.70 368.30 L 101.70 358.20 L 100.70 354.90 L 100.20 351.60 L 100.30 349.50 L 100.80 347.20 L 101.70 344.90 L 103.00 342.80 L 105.00 340.50 L 111.10 335.00 L 113.40 332.50 L 114.90 330.20 L 116.10 327.80 L 116.70 325.60 L 116.90 323.60 L 116.50 320.60 L 115.50 317.80 L 111.60 309.90 L 110.70 307.40 L 110.50 304.00 L 111.00 302.20 L 112.60 299.30 L 114.20 297.30 L 116.10 295.70 L 122.30 291.50 L 124.30 289.70 L 126.30 287.20 L 128.60 282.80 L 129.70 279.60 Z" fill="#1be3b3" fill-rule="nonzero" node-id="558" stroke="none" target-height="175.9" target-width="60.9" target-x="99.1" target-y="269.6"></path><path d="M 29.60 352.00 L 27.70 350.40 L 25.40 349.20 L 22.80 348.40 L 17.30 347.80 L 10.00 348.50 L 6.10 349.40 L 0.00 351.90 L 5.10 358.90 L 7.30 361.20 L 12.00 365.00 L 17.30 367.70 L 25.50 370.40 L 28.00 371.40 L 30.30 373.00 L 32.90 376.10 L 34.30 378.40 L 36.40 384.10 L 38.20 390.30 L 39.00 391.70 L 39.90 392.70 L 41.50 393.90 L 49.60 396.30 L 52.50 398.40 L 54.40 401.80 L 54.90 403.80 L 56.30 417.40 L 57.10 420.10 L 58.70 423.80 L 60.60 426.70 L 67.10 433.70 L 70.00 437.50 L 70.90 439.20 L 72.80 446.30 L 74.60 450.90 L 76.10 453.70 L 79.90 458.40 L 82.20 460.30 L 84.80 461.70 L 87.80 462.80 L 90.50 463.30 L 93.00 463.30 L 95.30 462.80 L 99.40 460.80 L 101.00 459.30 L 103.50 455.80 L 104.60 451.80 L 104.60 449.80 L 104.20 447.80 L 103.30 446.00 L 102.00 444.30 L 98.50 441.40 L 97.50 440.10 L 97.00 438.80 L 96.70 436.60 L 97.00 434.20 L 99.00 426.80 L 99.20 424.30 L 98.70 421.10 L 96.80 418.10 L 95.00 416.70 L 90.00 413.60 L 88.20 412.00 L 86.80 410.10 L 85.00 406.00 L 84.50 403.70 L 83.20 393.20 L 82.50 390.00 L 80.70 386.20 L 79.30 384.50 L 77.50 383.20 L 75.10 382.00 L 68.10 380.10 L 65.10 378.90 L 60.90 376.30 L 58.30 373.30 L 57.00 370.70 L 54.70 363.40 L 53.60 361.20 L 52.00 359.30 L 49.90 358.00 L 48.00 357.30 L 45.90 357.00 L 39.40 357.00 L 37.20 356.60 L 33.20 355.00 L 29.60 352.00 Z" fill="#54b7ff" fill-rule="nonzero" node-id="560" stroke="none" target-height="115.5" target-width="104.6" target-x="0" target-y="347.8"></path><path d="M 121.40 501.30 L 119.20 451.00 L 118.70 418.30 L 118.80 401.10 L 119.40 383.50 L 120.40 366.00 L 122.00 348.90 L 123.40 337.70 L 127.00 316.90 L 129.50 306.90 L 132.20 297.90 L 135.30 289.70 L 137.30 285.20 L 140.60 280.20 L 142.80 277.90 L 145.50 276.00 L 147.60 275.10 L 149.90 274.60 L 152.60 274.30" fill="none" node-id="562" stroke="#4f4f4f" stroke-linecap="butt" stroke-width="1.053" target-height="227" target-width="33.90001" target-x="118.7" target-y="274.3"></path><path d="M 99.70 512.30 L 99.20 503.50 L 98.20 492.80 L 96.60 481.70 L 92.40 461.10 L 87.50 443.80 L 84.60 435.20 L 77.40 418.10 L 73.20 409.70 L 68.60 401.60 L 63.60 393.80 L 55.00 382.90 L 45.40 373.00 L 40.20 368.50 L 34.70 364.40 L 28.80 360.70 L 22.60 357.30" fill="none" node-id="564" stroke="#4f4f4f" stroke-linecap="butt" stroke-width="1.053" target-height="155" target-width="77.1" target-x="22.6" target-y="357.3"></path><path d="M 139.60 512.70 L 140.70 503.10 L 142.60 491.50 L 145.00 479.50 L 148.30 466.30 L 150.90 457.40 L 157.30 439.00 L 161.10 429.80 L 165.30 420.70 L 170.00 411.60 L 175.10 402.80 L 180.60 394.30 L 186.70 386.20 L 191.50 380.30 L 196.60 374.80 L 202.00 369.60 L 207.70 364.70 L 213.70 360.20 L 220.00 356.10 L 226.60 352.40 L 233.60 349.20" fill="none" node-id="566" stroke="#4f4f4f" stroke-linecap="butt" stroke-width="1.053" target-height="163.5" target-width="94" target-x="139.6" target-y="349.2"></path><path d="M 86.80 493.60 L 150.00 493.60 L 166.30 615.70 L 166.40 622.70 L 165.10 629.20 L 163.50 633.40 L 161.40 637.10 L 158.70 640.60 L 155.60 643.70 L 152.20 646.30 L 148.30 648.50 L 142.00 650.60 L 138.60 651.20 L 101.80 651.40 L 94.80 650.60 L 88.50 648.50 L 84.60 646.30 L 81.20 643.70 L 78.10 640.60 L 75.40 637.10 L 73.30 633.40 L 71.70 629.20 L 70.80 626.00 L 70.30 619.30 L 70.50 615.70 L 86.80 493.60 Z" fill="#a3baff" fill-rule="nonzero" node-id="568" stroke="none" target-height="157.80002" target-width="96.09999" target-x="70.3" target-y="493.6"></path><path d="M 158.40 493.60 L 77.30 493.60 L 77.30 505.20 L 158.40 505.20 L 158.40 493.60 Z" fill="#ccd9ff" fill-rule="nonzero" node-id="570" stroke="none" target-height="11.600006" target-width="81.09999" target-x="77.3" target-y="493.6"></path></svg>